<svg width="1436" height="767" viewBox="0 0 1436 767" fill="none" xmlns="http://www.w3.org/2000/svg">
<path fill-rule="evenodd" clip-rule="evenodd" d="M734.989 29.1745C733.645 30.3445 732.392 31.7116 731.145 32.9855C730.058 34.2418 728.892 35.4278 727.653 36.5364C705.488 56.6929 681.872 67.7612 661.302 67.7612C640.933 67.7612 623.71 57.5037 610.124 37.2999C602.576 25.93 596.898 13.4341 593.305 0.28317H594.003C597.602 13.2869 603.211 25.6542 610.628 36.9414C624.157 56.8951 641.185 67.1009 661.302 67.1009C681.721 67.1009 705.135 56.0319 727.254 36.0783C728.399 35.0122 729.498 33.7957 730.694 32.5274C731.942 31.2069 733.24 29.8864 734.539 28.6182C744.475 19.7794 755.157 11.659 765.494 3.78741C767.043 2.62315 768.541 1.50478 770.085 0.28317H771.184C769.435 1.65604 767.641 2.97659 765.842 4.34874C755.511 12.2146 744.877 20.3408 734.989 29.1745ZM1392.71 94.6194C1378.33 81.0139 1363.45 66.8988 1353.91 46.7423C1349.12 36.4848 1344.37 20.2884 1342.18 0.286754H1342.87C1345.02 20.1938 1349.77 36.2847 1354.51 46.4906C1363.95 66.4443 1378.77 80.5078 1393.15 94.114C1409.88 109.952 1427.15 126.251 1435.69 152.043C1435.99 152.804 1436.24 153.584 1436.44 154.378V156.665C1436.04 155.142 1435.54 153.665 1435.09 152.298C1426.56 126.656 1409.33 110.357 1392.71 94.6194H1392.71ZM666.19 36.3851C659.156 36.3851 652.316 33.8946 646.023 29.0232C640.134 24.5067 637.239 19.8834 634.186 15.1109C632.941 13.0785 631.594 10.9988 630.046 8.86668C628.859 6.06905 627.842 3.20268 627.001 0.28317H627.699C628.549 3.0791 629.499 5.81983 630.594 8.46163C632.09 10.4835 633.474 12.5852 634.741 14.7575C637.736 19.5299 640.63 23.9963 646.369 28.4619C652.669 33.2867 659.257 35.7248 666.19 35.7248C684.716 35.7248 702.493 18.9686 718.165 4.24479C719.611 2.87765 720.961 1.60371 722.357 0.28317H723.359C721.81 1.76 720.263 3.17875 718.666 4.70218C702.889 19.5765 684.968 36.3851 666.19 36.3851ZM1424.31 213.475C1420.96 195.907 1417.86 179.307 1413.07 167.578C1404.99 147.577 1388.16 130.769 1370.39 112.946C1359.4 102.034 1348.12 90.7617 1338.59 78.3198C1326.66 62.8346 1318.67 49.4342 1311.98 33.5928C1308.03 24.2501 1304.63 13.4879 1301.34 3.07982C1301.04 2.16505 1300.69 1.19794 1300.44 0.283887H1301.14C1301.39 1.14417 1301.69 2.0102 1301.99 2.87837C1305.24 13.2814 1308.63 24.0486 1312.58 33.3397C1319.26 49.1296 1327.2 62.4805 1339.13 77.9169C1348.67 90.2541 1359.95 101.575 1370.84 112.443C1388.71 130.366 1405.59 147.219 1413.72 167.324C1418.51 179.105 1421.66 195.758 1424.96 213.378C1428.15 230.337 1431.45 247.899 1436.34 260.693C1436.39 260.788 1436.43 260.893 1436.44 261V262.778C1436.22 262.156 1435.97 261.545 1435.69 260.948C1430.75 248.054 1427.45 230.485 1424.31 213.475ZM1369.79 432.406C1346.57 441.848 1317.72 453.525 1306.68 477.441C1305.93 490.488 1310.43 501.605 1315.22 513.335C1321.96 529.784 1329.6 548.418 1325.31 577.564C1322.01 599.696 1309.23 613.915 1294.4 630.365C1288.26 637.165 1282.02 644.174 1276.03 652.144C1260.4 673.065 1249.72 696.673 1241.43 717.035C1233.09 737.288 1226.56 753.282 1204.68 758.615C1191.61 761.813 1173.33 764.05 1160.8 765.369C1154.44 766.1 1148.04 766.488 1141.63 766.53C1131.99 766.53 1123.71 765.469 1116.72 763.39C1101.89 758.917 1092.45 746.629 1080.57 731.093C1077.03 726.477 1073.39 721.752 1069.24 716.726C1066.44 713.274 1062.75 709.515 1058.8 705.455C1050.61 697.079 1042.18 688.397 1039.83 681.438C1038.98 678.75 1039.24 676.312 1039.43 673.52C1039.72 671.109 1039.77 668.677 1039.58 666.257L1039.53 666.106L1039.63 666.006C1047.57 655.348 1057.21 646.816 1066.54 638.487C1082.37 624.377 1097.4 611.073 1103.04 589.19C1106.03 577.664 1104.93 565.326 1099.74 551.466C1094.2 536.846 1081.32 520.75 1063.35 506.229C1055.26 499.678 1046.67 492.878 1037.59 485.615C995.901 452.565 948.619 415.095 922.806 382.445L922.761 382.242C921.912 378.234 922.209 373.664 923.359 368.637C926.702 354.926 937.239 338.633 952.315 323.909C966.691 309.944 983.02 299.484 996.051 295.829C997.099 295.527 999.147 294.969 1001.34 294.508C1018.71 290.552 1036.74 293.29 1054.11 295.933C1069.14 298.216 1083.42 300.399 1097.25 298.574C1127.15 294.559 1148.67 274.199 1156.26 242.721C1166.25 201.394 1138.63 175.451 1111.93 150.319C1092.25 131.737 1071.84 112.594 1066.5 87.3112C1061.4 63.4999 1068.04 37.806 1072.44 20.8003C1074.18 13.9431 1076.33 7.09019 1078.63 0.284604H1079.33C1076.98 7.14181 1074.89 14.0492 1073.09 21.0032C1068.74 37.9107 1062.1 63.4999 1067.15 87.1564C1072.44 112.242 1092.76 131.332 1112.43 149.81C1139.23 175.045 1166.99 201.14 1156.91 242.878C1149.27 274.607 1127.46 295.169 1097.3 299.183C1083.42 301.008 1069.15 298.877 1054.02 296.594C1036.69 293.953 1018.77 291.26 1001.49 295.17C999.346 295.627 997.249 296.188 996.202 296.49C970.339 303.701 931.198 339.242 924.058 368.741C922.854 373.07 922.616 377.609 923.36 382.039C949.173 414.637 996.349 452.107 1037.99 485.104C1047.13 492.316 1055.71 499.121 1063.8 505.667C1081.82 520.292 1094.8 536.435 1100.34 551.262C1105.58 565.227 1106.68 577.663 1103.69 589.34C1097.95 611.425 1082.92 624.88 1067 639.048C1057.71 647.272 1048.17 655.799 1040.23 666.311C1040.41 668.729 1040.37 671.157 1040.14 673.569C1039.83 676.314 1039.63 678.648 1040.48 681.185C1042.78 687.991 1051.12 696.67 1059.31 704.997C1063.2 709.012 1066.95 712.817 1069.74 716.269C1073.88 721.243 1077.58 726.019 1081.12 730.692C1092.96 746.12 1102.29 758.307 1116.92 762.731C1128.05 766.078 1142.38 766.738 1160.71 764.709C1173.29 763.333 1191.51 761.103 1204.54 757.956C1226.06 752.78 1232.59 736.886 1240.83 716.778C1249.17 696.367 1259.8 672.706 1275.48 651.683C1281.47 643.713 1287.76 636.71 1293.86 629.904C1308.63 613.554 1321.36 599.391 1324.61 577.457C1328.9 548.519 1321.31 529.984 1314.62 513.586C1309.83 501.757 1305.24 490.586 1305.99 477.334L1306.03 477.183C1317.22 453.064 1346.23 441.237 1369.54 431.842C1375.88 429.253 1382.42 426.608 1389.56 425.042C1404.97 421.619 1420.66 419.546 1436.44 418.847V419.56C1420.71 420.218 1405.07 422.274 1389.71 425.705C1382.62 427.228 1376.08 429.864 1369.79 432.406ZM1031.15 20.0346C1029.35 27.0431 1027.25 34.0516 1025.21 40.9038C1020.81 55.981 1016.67 70.2467 1015.02 82.9955C1013.77 92.083 1013.77 101.473 1014.97 108.023C1018.42 127.723 1031.44 143.055 1044.03 157.934C1058.46 174.94 1073.39 192.612 1074.53 217.131C1072.98 238.966 1048.77 242.164 1023.16 245.465C1018.46 246.125 1013.57 246.734 1008.88 247.493C990.11 250.539 968.49 256.633 946.375 265.057C938.635 268.053 931.196 271.759 923.957 275.367C910.179 282.321 897.148 288.921 881.918 290.647C879.945 290.853 877.962 290.956 875.977 290.954C865.645 290.954 856.658 288.006 848.969 285.215C841.183 282.422 834.491 279.428 828.003 276.433C814.073 270.189 800.944 264.299 780.673 262.469C777.041 262.08 773.391 261.894 769.738 261.912C747.72 261.912 729.3 267.803 711.428 273.485C696.049 278.461 681.425 283.082 666.298 283.082C663.342 283.104 660.387 282.918 657.457 282.526C634.489 279.578 616.82 267.496 603.536 245.509C591.8 226.117 585.068 201.593 579.423 177.984C577.774 171.08 574.88 158.134 573.886 148.739C572.885 139.906 574.232 133.46 578.077 128.989C585.017 120.816 598.942 120.306 615.07 119.801C622.414 119.547 629.945 119.292 637.484 118.279C669.243 114.114 695.847 109.95 725.307 97.4096C749.571 87.1521 773.835 74.3102 789.958 65.4248C817.016 50.3447 847.671 31.7116 869.288 0.28317H870.085C848.368 32.0184 817.566 50.906 790.256 66.0356C774.178 74.9726 749.915 87.7672 725.6 98.072C696.096 110.56 669.384 114.776 637.582 118.988C630.043 119.955 622.455 120.206 615.118 120.511C599.141 121.02 585.31 121.478 578.52 129.448C574.877 133.763 573.531 140.058 574.524 148.69C575.575 158.033 578.419 170.931 580.068 177.836C591.25 224.799 607.327 275.468 657.555 281.868C660.455 282.214 663.374 282.382 666.295 282.37C681.315 282.37 695.844 277.753 711.274 272.824C729.149 267.142 747.619 261.251 769.738 261.251C773.383 261.251 777.082 261.402 780.719 261.753C801.095 263.583 814.271 269.573 828.249 275.869C834.742 278.765 841.428 281.811 849.168 284.603C856.806 287.343 865.794 290.239 875.977 290.239C877.929 290.24 879.88 290.138 881.821 289.933C896.897 288.258 909.877 281.707 923.653 274.806C930.892 271.15 938.336 267.392 946.122 264.449C968.288 255.972 989.96 249.878 1008.73 246.831C1013.47 246.071 1018.37 245.411 1023.06 244.85C1048.37 241.501 1072.34 238.351 1073.88 217.082C1072.73 192.911 1057.85 175.344 1043.53 158.338C1030.84 143.463 1017.81 127.976 1014.27 108.172C1013.07 101.522 1013.17 92.0808 1014.32 82.8894C1016.02 70.0424 1020.21 55.8283 1024.61 40.7511C1026.6 33.8939 1028.65 26.7865 1030.55 19.8303C1031.74 15.3138 1032.99 10.6905 1034.29 6.22417C1034.84 4.29498 1035.34 2.26255 1035.94 0.281736H1036.64C1036.04 2.3665 1035.44 4.39391 1034.94 6.42705C1033.64 10.897 1032.39 15.4644 1031.15 20.0346ZM1389.91 45.421C1383.12 34.7111 1377.03 21.8126 1376.93 0.28317H1377.58C1377.73 21.6097 1383.72 34.4566 1390.46 45.0676C1399.05 58.5225 1411.43 66.5919 1424.61 75.1776C1428.55 77.7664 1432.54 80.3558 1436.44 83.1475V83.959C1432.44 81.115 1428.3 78.4266 1424.25 75.7863C1411.08 67.1533 1398.6 59.0272 1389.91 45.421ZM987.411 61.1585C983.368 70.4023 979.124 79.8439 977.729 89.743C973.782 116.856 987.559 134.478 1000.84 151.585C1009.98 163.211 1018.51 174.181 1021.16 187.686C1021.69 190.38 1021.8 193.136 1021.51 195.864C1021.41 197.283 1021.31 198.804 1021.31 200.886V200.99C1017.92 210.588 1007.78 217.341 999.844 221.298C971.188 235.72 924.504 242.518 890.456 247.496C885.313 248.227 880.125 248.601 874.93 248.614C861.699 248.614 849.419 246.331 836.439 243.945C822.559 241.402 808.183 238.712 791.604 238.712C787.212 238.712 782.718 238.915 778.378 239.268C777.478 239.372 774.978 239.523 771.783 239.725C767.09 239.981 761.199 240.287 757.059 240.641C743.179 241.706 732.193 244.197 721.611 246.63C707.432 249.832 694.155 252.874 674.427 252.874C672.382 252.874 670.237 252.827 668.091 252.775C652.417 250.285 638.031 233.482 632.293 210.939C627.555 192.305 628.65 167.527 645.922 153.822C666.241 137.725 725.455 123.61 757.259 121.021C764.048 120.413 769.687 120.361 775.131 120.361C781.22 120.309 787.463 120.262 795.651 119.55C817.573 117.517 835.691 108.736 856.314 90.1566C881.825 67.1038 895.654 49.2815 915.426 13.9961C917.808 9.60215 919.81 5.01466 921.411 0.28317H922.163C920.501 5.12179 918.43 9.81099 915.971 14.3001C896.197 49.6816 882.368 67.5067 856.71 90.6578C836.04 109.343 817.768 118.177 795.699 120.209C787.514 120.969 781.22 121.02 775.131 121.02C769.436 121.072 764.1 121.124 757.305 121.68C725.603 124.322 666.594 138.333 646.275 154.378C629.298 167.833 628.297 192.357 632.941 210.787C638.586 233.023 652.813 249.624 668.192 252.114C670.287 252.166 672.382 252.213 674.427 252.213C694.004 252.213 707.382 249.12 721.463 245.969C732.096 243.536 743.077 241.045 757.008 239.98C761.15 239.673 767.044 239.267 771.737 239.013C774.932 238.862 777.425 238.711 778.327 238.659C782.739 238.227 787.17 238.024 791.604 238.051C808.229 238.051 822.661 240.692 836.536 243.284C849.521 245.67 861.75 247.9 874.93 247.9C880.092 247.933 885.25 247.577 890.359 246.835C924.356 241.86 970.985 235.106 999.542 220.689C1007.33 216.831 1017.32 210.182 1020.61 200.787C1020.66 198.754 1020.76 197.231 1020.81 195.811C1021.18 193.14 1021.08 190.426 1020.51 187.789C1017.87 174.537 1009.38 163.572 1000.34 151.994C986.915 134.832 973.081 117.061 977.079 89.6469C978.526 79.6963 982.718 70.0983 986.813 60.9119C988.408 57.3037 990.11 53.55 991.558 49.7913C996.8 36.5364 1002.94 18.7112 1006.83 0.28317H1007.48C1003.53 18.8181 997.395 36.7909 992.155 50.0952C990.709 53.7966 989.057 57.5561 987.411 61.1585ZM1367.24 334.971C1358 324.516 1349.82 313.343 1341.13 301.567C1327.35 282.882 1313.12 263.588 1294.75 247.648C1293.45 246.429 1292.16 245.106 1290.95 243.785C1289.86 242.567 1288.66 241.352 1287.46 240.234C1275.48 229.467 1261.75 220.837 1248.52 212.565C1239.33 206.774 1229.8 200.836 1220.86 194.135C1213.77 188.8 1206.63 183.217 1199.79 177.836C1189.36 169.611 1178.57 161.183 1167.69 153.566C1162.55 149.964 1157.21 146.506 1151.51 142.851C1123.76 124.831 1092.3 104.42 1087.51 67.5046C1084.96 48.0047 1090.01 22.8757 1100.74 0.281019H1101.44C1090.7 22.8241 1085.66 47.9553 1088.16 67.4551C1092.95 104.061 1124.25 124.377 1151.91 142.243C1157.55 145.9 1162.89 149.402 1168.04 152.959C1178.97 160.622 1189.75 169.102 1200.14 177.275C1207.03 182.661 1214.12 188.244 1221.31 193.574C1230.2 200.223 1239.68 206.218 1248.87 211.952C1262.15 220.333 1275.88 228.963 1287.86 239.725C1289.16 240.843 1290.31 242.163 1291.46 243.334C1292.63 244.658 1293.88 245.912 1295.2 247.087C1313.63 263.079 1327.9 282.425 1341.63 301.111C1350.32 312.938 1358.56 324.059 1367.74 334.467C1385.69 354.908 1409.78 369.045 1436.44 374.781V375.487C1409.61 369.695 1385.36 355.495 1367.24 334.971ZM1408.18 308.675C1399.24 295.422 1399.19 271.356 1400.14 251.86C1400.89 236.122 1400.64 206.066 1390.51 181.085C1382.67 161.994 1364.1 144.983 1346.12 128.637C1343.38 126.1 1340.68 123.61 1338.03 121.124C1302.03 87.7672 1284.16 57.7582 1268.44 23.0808C1267.09 20.1415 1265.94 16.9871 1264.79 13.9409C1263.42 10.0527 1261.83 6.23987 1260.05 2.51848C1259.7 1.75928 1259.3 0.995057 1258.95 0.28317H1259.7C1260 0.94344 1260.35 1.55711 1260.7 2.16505C1262.46 5.92586 1264.03 9.77345 1265.39 13.6929C1266.55 16.7397 1267.69 19.8332 1269.09 22.7811C1284.77 57.4586 1302.54 87.3636 1338.49 120.668C1341.13 123.154 1343.88 125.592 1346.57 128.082C1364.59 144.528 1383.27 161.537 1391.11 180.83C1401.29 205.91 1401.54 236.122 1400.79 251.86C1399.84 271.304 1399.94 295.22 1408.73 308.321C1415.12 317.71 1425.3 324.412 1436.44 330.152V330.911C1425.1 325.072 1414.72 318.318 1408.18 308.675H1408.18ZM1426.5 18.9163C1422.16 14.3517 1420.31 7.23931 1420.31 0.28317H1421.06C1421.06 7.14037 1422.91 14.1438 1426.95 18.4639C1429.8 21.4591 1433.04 23.0844 1436.44 23.0844V23.7446C1432.9 23.741 1429.45 22.0671 1426.5 18.9163ZM1221.41 11.0504C1230.9 22.4205 1237.84 37.9609 1244.53 52.9894C1245.57 55.277 1246.58 57.5059 1247.57 59.795C1257.36 81.2204 1269.49 107.927 1282.77 126.15C1289.96 136.107 1301.84 143.26 1314.42 150.83C1332.24 161.54 1350.67 172.661 1357.86 193.072C1360.45 200.434 1360.5 208.503 1357.96 218.61C1355.46 224.246 1351.12 227.089 1345.13 227.089C1335.24 227.089 1323.56 219.317 1318.77 215.158C1309.23 206.98 1300.84 195.662 1292.81 184.639C1288.46 178.801 1284.02 172.661 1279.42 167.075C1277.18 164.48 1269.49 155.548 1263.05 151.691C1247.77 142.551 1228.2 135.543 1207.48 128.129C1178.67 117.877 1148.97 107.267 1130.45 89.9989C1120.56 80.9659 1114.72 66.7489 1114.22 51.1104C1113.77 34.3541 1119.46 18.4653 1130.4 6.27937C1132.33 4.11774 1134.43 2.11268 1136.69 0.28317H1137.79C1135.32 2.26457 1133.02 4.43765 1130.9 6.78192C1120.04 18.9394 1114.32 34.8005 1114.92 51.0573C1115.32 66.493 1121.16 80.5573 1130.85 89.4935C1149.32 106.604 1179.03 117.214 1207.68 127.466C1228.45 134.879 1248.02 141.888 1263.35 151.074C1269.99 155.089 1277.68 164.025 1279.87 166.661C1284.57 172.199 1289.01 178.347 1293.35 184.281C1301.39 195.199 1309.68 206.47 1319.17 214.591C1323.91 218.704 1335.44 226.42 1345.13 226.42C1350.87 226.42 1354.96 223.728 1357.36 218.347C1359.8 208.494 1359.75 200.524 1357.21 193.266C1350.12 173.11 1331.79 162.093 1314.07 151.43C1301.44 143.813 1289.51 136.602 1282.17 126.5C1268.94 108.273 1256.81 81.5129 1246.97 60.0882C1245.97 57.8055 1244.98 55.5179 1243.93 53.236C1237.24 38.262 1230.3 22.8263 1220.86 11.5078C1217.31 7.23495 1213.2 3.4593 1208.63 0.28317H1209.78C1214.09 3.37691 1218 6.99385 1221.41 11.0504ZM957.407 184.74L957.355 184.844C956.16 186.112 955.459 187.885 954.81 189.612L954.661 189.97L954.559 190.173C949.667 194.795 942.382 197.384 933.992 197.384C922.06 197.384 910.232 192.253 904.438 184.688C902.755 182.57 901.583 180.096 901.011 177.456C900.44 174.816 900.484 172.08 901.141 169.46C903.687 159.405 913.124 156.103 923.41 153.416L923.456 153.363L923.504 153.418C940.978 156.007 959.05 166.868 957.404 184.638V184.742L957.407 184.74ZM923.504 154.076C913.424 156.764 904.28 159.914 901.787 169.611C901.151 172.136 901.108 174.774 901.663 177.318C902.217 179.863 903.353 182.246 904.982 184.282C910.626 191.696 922.308 196.724 933.989 196.724C942.179 196.724 949.316 194.181 954.061 189.663L954.158 189.409C954.858 187.636 955.558 185.806 956.755 184.433C958.455 164.687 935.792 155.953 923.504 154.076ZM776.525 196.417L776.274 196.875L776.177 196.926C765.441 203.779 747.671 208.349 731.991 208.349C721.659 208.349 703.635 206.27 698.943 192.101V192.05C698.881 189.629 699.32 187.222 700.231 184.978C701.143 182.733 702.508 180.699 704.242 179.002C711.025 171.895 724.555 167.532 739.483 167.532C758.404 167.532 778.823 174.945 779.125 191.395V191.499L778.976 191.598C777.856 193.032 777.024 194.669 776.527 196.417H776.525ZM739.481 168.186C724.752 168.186 711.375 172.554 704.679 179.457C703.043 181.101 701.751 183.052 700.877 185.197C700.004 187.341 699.565 189.637 699.588 191.951C704.182 205.656 721.908 207.688 731.988 207.688C747.514 207.688 765.036 203.172 775.775 196.417L775.872 196.11C776.573 194.384 777.222 192.559 778.418 191.235C778.076 175.397 758.005 168.186 739.483 168.186H739.481ZM1252.02 520.644C1255.81 537.146 1259.76 554.308 1258.16 579.898C1245.52 624.425 1230.6 658.034 1212.68 682.761C1208.48 688.501 1203.34 695.046 1196.85 700.325C1187.56 707.89 1174.33 712.356 1161.6 712.356C1148.77 712.356 1137.79 707.89 1130.7 699.613C1122.81 690.525 1119.91 677.429 1122.06 660.725C1123.31 651.382 1126.66 641.53 1129.95 631.984C1133.25 622.491 1136.64 612.691 1137.84 603.353C1142.68 567.048 1127.4 529.428 1097.15 502.771C1084.32 491.396 1071.04 482.209 1058.3 473.324C1044.47 463.627 1030.2 453.624 1016.67 441.134C996.097 422.2 972.836 400.67 968.991 368.225V368.075C971.435 352.737 976.128 336.948 993.306 325.676C1003.04 319.23 1013.82 316.235 1027.2 316.235C1038.64 316.235 1050.37 318.419 1062.85 320.701C1076.28 323.138 1090.16 325.676 1104.59 325.676C1108.13 325.676 1111.63 325.525 1114.97 325.271C1121.81 324.611 1130.45 322.479 1139.48 320.197C1151.67 317.196 1164.3 314.051 1174.28 314.051C1176.21 314.037 1178.13 314.19 1180.02 314.509C1193.5 316.588 1207.78 328.468 1218.71 338.575C1236.94 355.378 1254.11 372.894 1256.96 387.316C1258.06 392.952 1257.71 401.988 1257.01 408.537C1256.01 418.487 1253.86 426.915 1251.87 435.041C1248.32 449.557 1244.63 464.587 1246.42 488.601C1247.32 500.285 1249.57 510.236 1252.02 520.644ZM1251.22 434.892C1253.21 426.77 1255.31 418.343 1256.31 408.491C1257.01 401.94 1257.36 393.006 1256.31 387.471C1253.51 373.205 1236.39 355.788 1218.26 339.037C1207.38 329.034 1193.2 317.253 1179.92 315.121C1178.05 314.864 1176.17 314.746 1174.28 314.768C1164.35 314.768 1151.77 317.861 1139.64 320.908C1130.55 323.143 1121.91 325.275 1115.07 325.936C1111.68 326.242 1108.18 326.395 1104.59 326.393C1090.11 326.393 1076.18 323.856 1062.75 321.319C1050.27 319.083 1038.54 316.9 1027.2 316.9C1013.97 316.9 1003.29 319.894 993.605 326.242C976.685 337.41 972.087 352.944 969.643 368.229C973.487 400.37 996.601 421.744 1017.07 440.678C1030.65 453.12 1044.88 463.07 1058.66 472.72C1071.49 481.652 1084.67 490.896 1097.6 502.318C1128.06 529.072 1143.38 566.901 1138.54 603.455C1137.29 612.846 1133.9 622.644 1130.6 632.19C1127.3 641.689 1123.91 651.536 1122.76 660.826C1120.56 677.328 1123.46 690.227 1131.25 699.211C1138.19 707.285 1148.92 711.699 1161.6 711.699C1174.18 711.699 1187.21 707.233 1196.45 699.819C1202.84 694.586 1207.98 688.043 1212.12 682.355C1230.05 657.732 1244.88 624.168 1257.51 579.747C1259.11 554.36 1255.16 537.25 1251.31 520.847C1248.87 510.34 1246.62 500.389 1245.77 488.658C1243.98 464.541 1247.62 449.464 1251.22 434.892ZM1210.28 518.919C1209.58 521.913 1209.13 524.96 1208.58 528.31C1206.78 539.987 1204.64 553.338 1192.86 559.635L1192.75 559.686H1192.66C1178.33 558.673 1169.29 545.675 1159.7 531.965C1156.26 527.094 1152.77 522.014 1148.98 517.595C1127.86 492.77 1104.04 476.32 1081.03 460.38C1064.85 449.155 1049.53 438.544 1035.99 425.702C1031.65 423.519 1028.7 419.708 1025.91 416.053C1023.76 413.313 1021.57 410.365 1018.67 408.135C1006.29 392.392 1002.2 373.961 1008.23 361.27C1012.03 353.248 1021.51 343.651 1045.18 343.651C1048.37 343.651 1051.72 343.854 1055.16 344.16C1062.76 344.924 1071.49 346.547 1080.63 348.273C1090.81 350.15 1102.35 352.288 1113.98 353.555C1116.42 353.81 1118.72 354.012 1121.02 354.314C1152.07 357.464 1170.79 359.492 1189.47 381.833C1202.74 397.825 1209.83 417.576 1211.83 444.081C1213.03 461.04 1212.08 479.622 1211.23 495.967C1210.78 504.195 1210.38 511.962 1210.28 518.919ZM1211.13 444.135C1209.18 417.781 1202.09 398.186 1188.96 382.345C1170.49 360.057 1152.91 358.279 1120.96 354.925C1118.67 354.722 1116.37 354.468 1113.92 354.218C1102.24 352.944 1090.71 350.813 1080.52 348.936C1071.39 347.262 1062.7 345.582 1055.11 344.875C1051.81 344.518 1048.49 344.331 1045.17 344.314C1021.85 344.314 1012.52 353.706 1008.78 361.58C1002.93 374.068 1006.93 392.192 1019.11 407.628C1022.01 409.915 1024.25 412.806 1026.45 415.598C1029.35 419.456 1032.05 423.012 1036.29 425.092L1036.39 425.143C1049.92 438.042 1065.25 448.653 1081.42 459.821C1104.49 475.813 1128.25 492.263 1149.47 517.192C1153.26 521.56 1156.76 526.639 1160.2 531.563C1169.69 545.117 1178.63 557.964 1192.6 558.977C1204.08 552.837 1206.03 540.297 1207.93 528.209C1208.48 524.861 1208.93 521.763 1209.58 518.818C1209.68 511.913 1210.13 504.193 1210.53 495.968C1211.38 479.624 1212.37 461.042 1211.13 444.135H1211.13ZM778.528 437.938C773.436 486.17 768.641 531.765 731.648 564.363C706.785 586.246 666.595 609.548 628.104 609.548C604.639 609.548 585.372 600.715 570.785 583.246C558.206 568.065 551.719 550.346 544.274 529.784C543.475 527.502 542.633 525.215 541.783 522.83C540.285 518.874 538.838 514.964 537.391 511.102C529.104 488.865 521.263 467.95 519.319 450.532C514.97 412.2 528.65 396.764 545.577 381.838C571.937 358.634 606.237 356.908 642.583 355.031C651.173 354.574 661.353 353.659 672.081 352.645C689.008 351.068 708.132 349.343 724.158 349.343C741.432 349.343 752.767 351.325 758.906 355.489C784.668 372.853 781.575 415.044 779.126 432.304L778.528 437.938ZM758.559 356.095C752.516 351.983 741.284 350.001 724.158 350.001C708.182 350.001 689.009 351.78 672.132 353.355C661.404 354.317 651.216 355.284 642.633 355.689C606.389 357.515 572.181 359.292 546.024 382.345C529.197 397.121 515.669 412.455 519.967 450.479C521.911 467.745 529.752 488.66 537.989 510.849C539.436 514.759 540.933 518.663 542.33 522.625C543.23 524.913 544.073 527.247 544.879 529.579C552.317 550.042 558.761 567.709 571.332 582.838C585.717 600.151 604.783 608.933 628.104 608.933C666.343 608.933 706.483 585.626 731.198 563.796C768.042 531.452 772.786 485.96 777.827 437.88L778.475 432.197C780.97 415.042 783.968 373.205 758.558 356.095H758.559ZM743.181 445.862C738.738 487.49 734.94 523.437 701.789 550.092C686.417 562.533 658.61 577.054 631.099 577.054C617.419 577.054 605.885 573.451 596.748 566.292C570.893 545.932 559.653 503.586 557.861 473.531C555.809 438.802 568.344 408.288 591.355 392.041C612.473 377.062 639.336 375.54 667.841 373.964C674.083 373.663 680.275 373.309 686.467 373.309C704.337 373.309 726.402 375.591 737.691 393.31C744.178 406.765 743.779 422.555 743.329 437.788C743.276 440.527 743.23 443.168 743.179 445.862H743.181ZM737.087 393.616C726.004 376.252 704.183 373.964 686.467 373.964C680.275 373.964 674.133 374.271 667.841 374.677C639.53 376.254 612.724 377.671 591.708 392.55C568.941 408.694 556.507 439.006 558.552 473.479C560.301 503.436 571.49 545.574 597.201 565.783C606.187 572.838 617.563 576.446 631.099 576.446C658.409 576.446 686.064 561.925 701.443 549.536C734.291 523.031 737.935 488.915 742.483 445.809C742.534 443.168 742.585 440.527 742.734 437.787C743.077 422.606 743.476 406.916 737.086 393.616H737.087ZM1150.42 439.207L1150.27 439.311C1149.28 440.048 1148.37 440.899 1147.57 441.848C1146.62 443.015 1145.47 444.012 1144.18 444.796L1144.13 444.842H1143.98C1125.06 441.443 1103.54 431.436 1087.82 418.801C1081.57 413.773 1074.28 406.916 1072.84 398.337L1072.79 398.186L1072.89 398.03C1073.83 396.782 1074.86 395.612 1075.99 394.531C1076.84 393.715 1077.64 392.954 1078.38 392.094L1078.44 391.938H1078.58C1081.54 391.631 1084.5 391.48 1087.47 391.486C1103.95 391.486 1126.42 396.56 1139.89 410.727C1147.28 418.593 1150.83 428.092 1150.43 439.057V439.207L1150.42 439.207ZM1139.39 411.184C1126.1 397.121 1103.84 392.148 1087.46 392.148C1084.56 392.141 1081.66 392.292 1078.77 392.6C1078.03 393.46 1077.23 394.279 1076.48 395.037C1075.37 396.016 1074.38 397.124 1073.53 398.339C1074.98 406.666 1082.12 413.368 1088.21 418.243C1103.84 430.835 1125.2 440.786 1143.98 444.186C1145.13 443.439 1146.16 442.514 1147.02 441.446C1147.84 440.507 1148.75 439.641 1149.72 438.857C1150.07 428.19 1146.68 418.9 1139.39 411.184ZM673.88 531.156C662.799 538.468 650.415 542.427 638.931 542.427C623.804 542.427 611.125 535.777 602.089 523.133C581.122 493.74 590.605 438.14 620.665 415.04C628.801 408.692 642.726 401.18 662.648 401.18C667.455 401.18 672.252 401.605 676.983 402.448C698 406.051 708.93 422.959 708.577 451.241C708.282 472.72 703.342 511.712 673.88 531.156ZM676.875 403.108C672.175 402.308 667.416 401.901 662.648 401.89C642.927 401.89 629.146 409.298 621.01 415.547C606.833 426.516 596.595 445.244 592.952 467.081C589.359 488.401 593.002 509.163 602.686 522.778C611.528 535.214 624.106 541.713 638.931 541.713C650.271 541.713 662.598 537.803 673.534 530.592C702.687 511.35 707.583 472.612 707.878 451.239C708.281 423.319 697.496 406.666 676.875 403.11V403.108ZM1352.42 720.691C1349.67 725.76 1347.02 730.642 1343.88 734.649L1343.73 734.8C1339.39 740.535 1332 750.084 1321.71 748.507C1310.63 746.837 1296 733.431 1298.64 713.731C1300.74 697.994 1311.12 686.468 1331.35 677.479C1332.64 676.923 1333.94 676.314 1335.29 675.753C1345.02 671.595 1354.26 667.632 1358.51 658.188C1362.9 639.509 1363.75 614.325 1364.7 587.565C1365.44 565.429 1366.25 542.483 1369.19 522.932C1374.83 485.208 1393.8 462.768 1427.21 454.185C1430.24 453.363 1433.33 452.719 1436.44 452.256V452.968C1433.37 453.415 1430.34 454.042 1427.35 454.845C1394.25 463.273 1375.43 485.613 1369.84 523.031C1366.94 542.579 1366.14 565.476 1365.35 587.613C1364.45 614.373 1363.55 639.604 1359.15 658.44C1354.76 668.19 1345.42 672.149 1335.54 676.363C1334.19 676.971 1332.89 677.475 1331.59 678.088C1311.62 686.922 1301.39 698.292 1299.34 713.832C1296.75 733.076 1310.97 746.174 1321.81 747.794C1331.69 749.321 1338.93 739.979 1343.23 734.438L1343.38 734.287C1346.47 730.23 1349.12 725.455 1351.86 720.379C1360.5 704.489 1369.44 688.04 1395 692.355C1407.08 694.339 1420.66 700.885 1436.44 712.208V713.068C1420.56 701.598 1406.98 694.997 1394.9 693.016C1369.79 688.803 1360.95 705.049 1352.42 720.691ZM1419.86 630.62C1405.08 614.066 1397.2 589.594 1398.2 563.396C1399.2 538.161 1408.48 515.113 1423.06 501.658C1427.07 498.69 1431.61 496.519 1436.44 495.263V495.918C1431.79 497.196 1427.41 499.295 1423.51 502.115C1409.03 515.521 1399.85 538.415 1398.85 563.396C1397.85 589.391 1405.69 613.765 1420.32 630.212C1425.15 635.481 1430.56 640.198 1436.44 644.278V645.088C1430.34 640.961 1424.77 636.102 1419.86 630.62ZM820.013 635.035C820.661 630.519 822.707 625.085 824.405 620.769C838.483 585.13 871.535 547.759 895.548 526.639C912.025 512.165 925.705 503.69 936.19 501.554C938.568 501.036 940.996 500.782 943.43 500.795C972.086 500.795 1007.28 530.444 1009.48 556.44C1009.35 557.731 1009.1 559.007 1008.73 560.251C1008.33 562.18 1007.83 564.108 1008.03 566.188V566.292L1007.98 566.339C998.156 589.943 986.643 612.815 973.531 634.779C967.843 644.324 962.1 653.464 954.559 661.133C936.339 679.663 904.586 692.66 877.527 692.66C862.551 692.66 850.017 688.803 840.284 681.342C824.006 668.797 817.165 653.21 820.013 635.035ZM877.527 691.954C904.438 691.954 935.941 679.055 954.063 660.625C961.551 653.06 967.294 643.921 972.984 634.479C986.039 612.552 997.518 589.732 1007.33 566.189C1007.26 564.128 1007.53 562.068 1008.13 560.096C1008.45 558.892 1008.7 557.671 1008.88 556.439C1006.63 530.751 971.787 501.507 943.429 501.507C941.032 501.487 938.639 501.709 936.287 502.167C925.904 504.35 912.325 512.725 895.951 527.142C872.035 548.266 839.086 585.481 825.053 621.022C823.356 625.285 821.309 630.666 820.61 635.137C817.865 653.06 824.654 668.442 840.733 680.78C850.319 688.142 862.701 691.953 877.527 691.953V691.954ZM882.67 577.97C897.097 564.567 914.274 554.865 927.602 552.734C929.973 552.297 932.379 552.076 934.79 552.074C943.077 552.074 949.718 554.715 954.61 559.894C960.351 565.935 963.199 575.428 962.746 586.601C956.903 612.139 951.014 632.904 933.341 647.529C922.206 656.871 905.033 662.912 889.758 662.912C871.384 662.912 858.654 654.329 854.856 639.454C853.762 635.035 853.961 628.64 854.61 624.221C856.806 609.397 867.042 592.537 882.67 577.97ZM855.559 639.251C859.255 653.87 871.683 662.2 889.759 662.2C904.932 662.2 921.859 656.211 932.943 647.018C950.417 632.497 956.255 611.883 962.099 586.496C962.548 575.584 959.701 566.293 954.113 560.299C949.42 555.323 942.876 552.785 934.789 552.785C932.412 552.799 930.041 553.003 927.698 553.394C900.04 557.91 859.954 593.099 855.21 624.325C854.613 628.639 854.413 634.935 855.559 639.25V639.251ZM191.509 12.8283C175.381 20.7981 156.409 21.6097 140.684 15.0586C132.996 11.8364 126.236 6.75843 121.013 0.28317H121.813C126.873 6.51191 133.431 11.3671 140.878 14.3983C156.459 20.9494 175.28 20.1379 191.206 12.267C196.398 9.72984 201.294 5.71588 205.988 0.28317H206.881C202.035 6.07505 196.894 10.1872 191.509 12.8283ZM763.399 40.7002C757.105 45.2167 751.114 50.0429 745.327 54.6598C731.299 65.8327 718.068 76.2931 703.486 81.2684C687.166 89.5401 671.557 93.6855 656.657 93.7046C644.369 93.7312 632.257 90.7874 621.363 85.1261C588.51 68.3211 569.991 31.6155 562.899 0.28317H563.597C570.689 31.3582 589.006 67.8652 621.658 84.5196C646.073 97.0074 673.534 95.6869 703.234 80.6562C717.766 75.7332 730.946 65.2255 744.928 54.0533C750.715 49.483 756.707 44.7105 763.046 40.1403C769.84 35.2166 776.88 30.4441 783.715 25.8738C796.097 17.4975 808.232 9.32407 818.914 0.28317H820.013C809.128 9.57929 796.747 17.9026 784.068 26.4345C777.228 31.0513 770.188 35.7736 763.399 40.7002ZM527.446 53.4432C523.004 64.4082 513.219 69.742 497.545 69.742C489.61 69.742 481.374 68.3699 474.728 67.2515H474.534C472.999 66.9995 471.445 66.8813 469.89 66.8981C463.647 66.8981 457.253 68.7749 451.119 70.6052C447.973 71.5673 444.625 72.5344 441.428 73.1946C438.829 73.8026 436.287 74.26 433.738 74.8163C423.212 76.9011 412.275 79.0847 402.39 83.7016C398.494 85.5319 394.505 87.3098 390.61 88.9838C371.336 97.4633 351.414 106.245 338.49 123.308C337.683 124.374 336.992 125.44 336.236 126.505C327.207 140.111 319.359 154.731 311.878 168.899C303.382 184.891 294.606 201.294 284.014 216.318C273.783 230.991 260.002 247.191 246.675 262.876C242.024 268.362 237.69 273.54 233.441 278.619C212.273 304.104 192.308 328.119 155.458 328.119H155.408C145.969 328.119 135.989 326.596 124.757 323.549C92.8542 314.82 36.5359 292.984 17.2687 245.667C12.1711 233.127 8.77985 215.607 5.17987 197.129C2.43671 183.164 -0.407288 168.696 -4.00739 156.665V154.378C-0.0545044 166.866 2.94061 182.203 5.78461 196.973C9.4278 215.508 12.819 232.925 17.8663 245.413C37.0399 292.526 93.1495 314.16 124.902 322.889C136.09 325.987 146.077 327.459 155.408 327.459H155.458C191.955 327.459 211.878 303.548 232.894 278.162C237.135 273.082 241.534 267.903 246.171 262.471C259.455 246.786 273.236 230.538 283.517 215.965C294.001 200.987 302.785 184.485 311.273 168.597C318.812 154.429 326.653 139.758 335.689 126.147C336.387 125.081 337.186 123.916 337.985 122.897C351.018 105.741 370.983 96.902 390.308 88.3758C394.253 86.6495 398.242 84.8716 402.087 83.0937C412.074 78.4245 423.01 76.2408 433.594 74.1094C436.186 73.5997 438.735 73.0907 441.284 72.5322C444.423 71.8196 447.721 70.8582 450.917 69.9428C457.109 68.1125 463.496 66.184 469.89 66.184C471.475 66.1949 473.058 66.3147 474.627 66.5425L474.93 66.5891C481.467 67.7067 489.661 69.0266 497.545 69.0266C512.873 69.0266 522.507 63.8483 526.805 53.2367C531.291 42.3189 529.794 23.7891 528.454 7.39129C528.253 4.90076 528.051 2.56651 527.9 0.278868H528.598C528.749 2.56651 528.901 4.90076 529.102 7.33896C530.442 23.7934 531.896 42.4265 527.446 53.4432ZM251.319 21.1C231.497 48.4141 196.297 64.6628 157.208 64.6628C147.773 64.6923 138.364 63.688 129.149 61.6682C94.3951 53.8489 83.2711 29.7358 78.3246 0.28317H78.9727C80.5207 9.62589 82.6735 18.36 86.0143 26.2352C94.0495 45.1235 107.83 56.1868 129.25 61.0115C138.431 63.0283 147.807 64.0325 157.208 64.0061C196.095 64.0061 231.044 47.8112 250.765 20.6978C252.961 14.9116 254.811 7.90316 256.611 0.286037H257.31C255.748 7.32127 253.764 14.2571 251.37 21.0562L251.319 21.1ZM440.83 35.3714C423.154 37.9602 406.285 43.2896 390.056 48.4678C379.573 51.8215 368.694 55.2734 357.656 57.9611C350.622 59.6874 343.58 61.0596 337.337 62.0217C331.806 62.9209 326.216 63.4145 320.612 63.4985C310.928 63.4985 305.185 61.4673 303.382 57.4048C298.45 46.591 294.649 23.0808 294.447 0.28317H295.095C295.297 22.9818 299.098 46.3365 303.937 57.1503C305.636 60.909 311.273 62.7859 320.612 62.7859C326.181 62.7194 331.737 62.2449 337.237 61.3664C343.479 60.3993 350.463 59.0272 357.505 57.3008C368.535 54.6132 379.321 51.1605 389.811 47.8076C406.133 42.6294 423.01 37.2483 440.78 34.6595C458.254 32.1224 472.186 19.9357 480.373 0.28317H481.122C472.834 20.3408 458.65 32.7303 440.83 35.3714ZM51.4615 17.8509C52.3615 42.8323 53.1607 64.4606 69.4831 77.2029C86.4608 90.5595 116.117 94.3649 137.789 97.1099C139.935 97.4117 142.081 97.7186 144.075 97.9702C147.932 98.4838 151.819 98.7374 155.71 98.7294C177.778 98.7294 201.294 91.1646 224.06 83.9016C244.421 77.4545 265.438 70.7012 285.116 69.537H285.166L285.217 69.5893C296.449 72.8391 299.242 85.02 298.148 95.3262C294.951 135.588 281.019 168.539 249.915 209.099C243.68 217.225 237.783 225.502 232.145 233.524C222.454 247.026 213.375 259.873 202.741 271.955C186.814 290.183 166.841 299.323 143.326 299.323C116.067 299.323 85.4167 286.43 59.2015 263.836C32.1943 234.085 28.1479 194.684 26.3046 156.861C26.1535 153.913 26.1031 150.867 26.0023 147.571C25.5991 132.39 25.1599 113.45 17.8159 104.107C11.3719 95.8819 3.79022 89.5336 -4.00739 83.9504V83.1388C3.98468 88.8268 11.7247 95.2216 18.3631 103.753C25.8007 113.194 26.2543 132.233 26.7007 147.518C26.8015 150.816 26.8519 153.913 27.0031 156.81C28.796 194.482 32.8422 233.828 59.6983 263.379C85.7623 285.818 116.218 298.717 143.326 298.717C166.64 298.717 186.512 289.525 202.237 271.552C212.828 259.417 221.965 246.676 231.591 233.069C237.236 225.098 243.126 216.874 249.368 208.694C280.371 168.231 294.303 135.331 297.442 95.2201C298.544 85.2695 295.901 73.3896 285.065 70.2388C265.546 71.4088 244.573 78.0581 224.254 84.5569C201.437 91.8199 177.879 99.3847 155.71 99.3847C151.786 99.3661 147.867 99.1109 143.974 98.6204C141.98 98.3186 139.834 98.0641 137.681 97.8089C115.966 95.0173 86.1655 91.1596 69.1374 77.7563C52.5126 64.7588 51.7136 43.0789 50.7631 17.8431C50.5687 12.6183 50.4174 7.18482 50.0718 1.75211C49.9907 1.26327 49.9378 0.77018 49.9135 0.275284H50.6191C50.6191 0.785004 50.6695 1.19006 50.6695 1.69978C51.0655 7.19271 51.2672 12.5738 51.4615 17.8509ZM12.0198 6.022C11.2783 15.4135 3.79022 23.7403 -4.00739 23.7403V23.0292C3.48785 23.0292 10.6303 15.0593 11.3215 5.9711C11.5213 4.08111 11.5381 2.17638 11.3719 0.28317H12.0198C12.1962 2.19208 12.1962 4.11309 12.0198 6.022ZM105.137 131.736C109.733 131.763 114.315 132.238 118.817 133.155C128.998 135.188 139.885 138.437 151.47 141.889C164.393 145.747 177.879 149.808 190.659 152.043C202.489 154.227 207.63 159.556 206.283 168.441V168.493C202.143 177.378 198.946 187.276 195.548 197.738C188.262 220.587 180.665 244.193 162.248 256.482C153.565 262.217 142.973 265.262 131.648 265.262C113.223 265.262 94.3951 257.443 81.1182 244.295C70.2391 233.429 62.2974 215.762 59.8566 197.025C57.2574 177.274 61.1526 158.542 70.5847 145.643C76.8775 137.065 90.1542 131.736 105.137 131.736ZM81.6151 243.788C94.7479 256.836 113.475 264.605 131.648 264.605C142.88 264.605 153.313 261.61 161.902 255.876C180.176 243.742 187.664 220.284 195.001 197.538C198.341 187.077 201.495 177.178 205.635 168.293C206.881 159.762 202.143 154.786 190.558 152.758C177.778 150.418 164.249 146.462 151.217 142.552C139.733 139.101 128.797 135.851 118.71 133.818C114.241 132.921 109.696 132.461 105.137 132.445C90.3559 132.445 77.3311 137.679 71.1391 146.103C50.6191 174.025 60.1015 222.412 81.6151 243.785V243.788ZM869.943 434.084C866.548 440.634 863.051 447.388 860.158 454.09C857.561 459.825 854.964 465.865 852.418 471.756C836.892 507.65 820.864 544.818 797.501 574.619C788.564 586.041 777.731 596.959 767.297 607.622C757.262 617.724 747.825 627.217 740.283 636.867C736.7 641.487 733.399 646.317 730.4 651.333C723.959 661.486 717.872 671.084 707.729 677.682L707.635 677.733L704.733 677.531C665.997 675.196 632.496 673.163 596.798 666.566C571.44 661.892 553.461 656.87 543.525 651.686C523.005 640.976 517.418 621.833 511.428 601.526C510.78 599.447 510.132 597.31 509.534 595.178C500.844 566.443 488.258 537.297 455.664 519.074L455.563 518.919C455.311 518.617 455.059 518.31 454.764 518.009C448.017 514.401 441.285 510.745 434.496 507.09C422.709 500.795 410.527 494.192 398.496 487.901C393.305 485.156 388.157 482.309 383.066 479.624C375.182 475.309 366.996 470.89 358.91 466.777C353.316 464.037 348.369 460.226 343.481 456.572C342.278 455.657 341.033 454.695 339.83 453.78C335.337 450.426 330.348 447.026 324.66 444.796C313.975 440.527 302.138 440.023 290.762 439.462C280.869 439.056 270.689 438.546 261.105 435.702C251.969 433.015 245.625 430.628 240.333 422.705C223.212 397.326 231.895 378.328 245.928 354.317C260.702 329.133 278.673 309.485 299.395 295.978C303.118 293.642 307.004 291.573 311.023 289.786C315.372 287.707 319.814 285.575 323.803 282.731C328.454 279.482 332.947 275.926 337.289 272.474C340.838 269.682 344.431 266.786 348.117 264.046C363.151 253.029 381.122 240.791 401.297 233.585C407.978 231.199 415.92 230.741 421.413 230.741C426.872 230.724 432.319 231.216 437.685 232.212C443.928 233.431 448.968 236.22 454.31 239.216C456.557 240.489 458.954 241.809 461.402 243.026C464.095 244.245 466.896 245.21 469.589 246.172C473.179 247.301 476.655 248.763 479.971 250.539C488.165 255.109 496.099 260.443 503.738 265.622C511.125 270.597 518.765 275.723 526.605 280.189C563.649 301.365 595.401 313.296 626.304 317.861C635.511 319.236 644.807 319.932 654.117 319.946C665.576 319.957 677.011 318.887 688.267 316.748C696.95 315.121 705.885 312.584 714.576 310.094C729.801 305.779 745.475 301.316 760.856 301.316C768.825 301.205 776.746 302.564 784.219 305.324C798.896 310.809 811.979 322.185 825.859 334.267C832.944 340.407 840.235 346.755 848.175 352.797C849.969 354.117 852.218 355.692 854.764 357.47C860.403 361.531 867.443 366.503 873.484 371.685C884.716 381.485 887.812 390.422 884.118 402.655C881.024 412.707 875.681 423.118 869.94 434.081L869.943 434.084ZM873.087 372.241C867.044 367.016 860.055 362.087 854.367 358.026C851.821 356.248 849.623 354.678 847.823 353.306C839.838 347.317 832.497 340.917 825.41 334.771C811.627 322.741 798.601 311.417 784.021 305.937C776.604 303.227 768.758 301.867 760.857 301.923C745.576 301.923 729.953 306.388 714.773 310.756C706.039 313.246 697.104 315.783 688.363 317.457C677.071 319.557 665.608 320.611 654.12 320.607C644.792 320.62 635.477 319.923 626.256 318.523C595.159 313.953 563.4 301.923 526.255 280.752C518.422 276.28 510.783 271.102 503.345 266.179C495.749 261.001 487.764 255.719 479.679 251.149C476.385 249.408 472.942 247.964 469.39 246.834C466.584 245.915 463.836 244.83 461.16 243.584C458.655 242.42 456.264 241.047 454.018 239.83C448.675 236.882 443.686 234.038 437.587 232.876C432.257 231.864 426.843 231.354 421.416 231.353C415.973 231.353 408.139 231.909 401.494 234.243C381.478 241.402 363.449 253.641 348.523 264.658C344.88 267.351 341.187 270.195 337.687 273.034C333.295 276.439 328.803 279.988 324.209 283.291C320.098 286.004 315.774 288.381 311.278 290.398C307.305 292.167 303.467 294.221 299.794 296.544C279.13 310.05 261.202 329.593 246.528 354.628C232.596 378.49 224.014 397.327 240.883 422.355C246.075 430.123 252.317 432.41 261.252 435.051C270.785 437.942 280.98 438.349 290.765 438.857C302.242 439.314 314.071 439.87 324.958 444.186C330.646 446.422 335.643 449.873 340.186 453.227C341.489 454.137 342.684 455.104 343.879 456.019C348.725 459.675 353.715 463.48 359.158 466.225C367.344 470.285 375.487 474.699 383.371 478.968C388.411 481.707 393.66 484.603 398.844 487.291C410.883 493.639 423.065 500.138 434.794 506.486C441.583 510.193 448.323 513.848 455.112 517.451L455.213 517.503C455.522 517.799 455.807 518.121 456.063 518.464C488.815 536.895 501.394 566.138 510.135 594.979C510.783 597.11 511.431 599.247 512.028 601.327C517.968 621.484 523.613 640.522 543.831 651.029C553.767 656.263 571.587 661.288 596.902 665.91C632.549 672.505 666.051 674.54 704.787 676.874L707.436 677.025C717.423 670.526 723.461 661.085 729.851 650.983C732.879 645.967 736.179 641.119 739.738 636.462C747.376 626.812 756.813 617.22 766.797 607.166C777.232 596.502 788.116 585.537 796.95 574.162C820.268 544.41 836.341 507.297 851.821 471.501C854.367 465.61 856.964 459.569 859.51 453.834C862.506 447.133 865.998 440.327 869.392 433.777C875.032 422.759 880.376 412.508 883.467 402.399C887.061 390.518 884.116 381.783 873.084 372.238L873.087 372.241ZM810.879 480.131L809.583 485.159C796.051 536.335 775.98 566.698 735.44 596.904L734.495 597.668C712.674 613.915 693.803 628.03 672.837 634.779C662.346 638.236 649.516 640.013 635.793 640.013H635.742C617.519 640.013 598.943 636.764 586.113 631.383C552.215 617.116 539.788 586.957 525.51 551.926C506.733 506.08 473.829 446.775 423.954 424.539C414.925 420.531 406.185 419.714 396.947 418.851C393.405 418.55 389.711 418.144 385.967 417.632C371.833 415.6 356.058 412.657 337.641 408.599C335.041 408.089 332.442 407.481 329.85 406.873C316.365 403.827 298.545 395.191 292.705 380.977C288.364 370.47 289.012 360.872 294.448 352.496C310.727 327.614 366.793 319.088 389.812 319.035H390.258C400.446 319.035 410.879 320.101 420.959 321.167C426.697 321.775 432.594 322.436 438.282 322.794C447.973 323.502 455.865 326.298 465.599 332.49C475.629 338.885 486.414 341.932 499.446 341.932C509.181 341.932 519.066 340.309 529.499 338.634C532.645 338.073 535.943 337.569 539.233 337.057C552.913 335.024 567.544 334.109 585.414 334.109C596.495 334.109 607.684 334.467 618.462 334.821C629.197 335.128 640.235 335.482 651.114 335.482C670.936 335.482 686.913 334.263 701.594 331.676C705.885 330.859 710.529 329.747 715.468 328.577C726.052 325.988 738.037 323.046 750.067 323.046C756.219 322.967 762.348 323.823 768.241 325.583C796.052 334.109 819.313 368.688 823.609 395.696C825.209 405.805 824.959 416.16 822.908 428.294C819.711 446.771 815.422 462.971 810.877 480.128L810.879 480.131ZM822.906 395.804C818.663 368.991 795.648 334.723 768.092 326.246C762.242 324.519 756.168 323.662 750.066 323.703C738.087 323.703 726.156 326.599 715.618 329.188C710.73 330.41 706.035 331.522 701.694 332.343C687.013 334.979 670.985 336.149 651.114 336.149C640.234 336.149 629.197 335.842 618.462 335.488C607.683 335.134 596.494 334.776 585.414 334.776C567.644 334.776 552.963 335.743 539.333 337.724C536.036 338.28 532.745 338.79 529.599 339.301C519.116 340.975 509.23 342.551 499.445 342.551C486.313 342.551 475.383 339.55 465.195 333.104C455.562 326.959 447.771 324.219 438.231 323.507C432.543 323.054 426.654 322.492 420.915 321.884C410.878 320.818 400.395 319.753 390.258 319.753H389.811C366.893 319.805 311.18 328.232 295.045 352.855C289.709 361.027 289.105 370.419 293.353 380.779C299.098 394.743 316.666 403.218 329.993 406.265C332.542 406.826 335.142 407.382 337.733 407.99C356.158 412.005 371.934 414.944 386.06 416.98C389.761 417.489 393.454 417.84 396.997 418.15C406.285 419.059 415.119 419.876 424.206 423.936C474.332 446.224 507.279 505.675 526.157 551.676C540.385 586.505 552.711 616.612 586.364 630.728C599.144 636.109 617.562 639.312 635.742 639.312H635.792C649.472 639.312 662.202 637.534 672.634 634.18C693.5 627.478 712.278 613.415 734.141 597.116L735.091 596.357C775.428 566.247 795.448 536.038 808.93 485.015L810.226 479.987C814.816 462.825 819.111 446.579 822.209 428.199C824.307 416.107 824.504 405.803 822.906 395.804ZM1043.83 65.5782C1042.68 75.1231 1041.23 92.8415 1044.47 104.721C1049.87 124.322 1065.45 141.177 1080.47 157.528C1101.74 180.523 1123.71 204.342 1116.97 236.172C1113.32 253.329 1104.24 263.993 1089.01 268.817C1075.83 273.029 1059.6 272.474 1041.33 271.459C1007.98 269.577 985.366 275.165 972.232 280.239C958.955 285.418 946.772 293.949 934.891 302.273C919.013 313.394 903.988 323.953 887.011 326.29C880.763 327.234 874.39 326.975 868.239 325.525C852.36 321.97 840.375 313.848 827.698 305.218C806.13 290.645 783.865 275.516 740.63 284.297C731.142 286.18 721.71 289.07 711.72 292.07C679.867 301.662 646.919 311.514 610.077 291.659C576.777 274.653 555.804 243.428 535.586 213.216C526.154 199.152 516.369 184.533 505.583 171.738C491.752 155.387 472.924 133 449.812 140.767C440.531 143.814 430.948 145.337 421.653 146.809C406.929 149.195 391.752 151.633 378.071 160.363C368.287 166.612 360.698 175.497 353.311 184.127C349.862 188.135 346.269 192.3 342.525 196.158C334.238 204.637 327.549 214.64 321.055 224.285C315.511 232.51 309.823 240.942 303.134 248.507C294.148 256.576 286.264 263.634 277.077 272.064C265.989 282.368 255.851 294.607 246.067 306.383C227.303 329.081 209.628 350.455 186.508 357.359C170.186 362.283 153.309 361.622 131.788 355.327C120.311 351.926 105.134 345.375 94.449 340.4C71.8267 329.857 50.0311 317.638 29.2459 303.846C14.3047 293.753 2.72577 279.452 -4.01093 262.773V260.995C2.55731 278.171 14.2737 292.919 29.5483 303.238C50.3389 317.017 72.1312 329.235 94.7443 339.792C105.379 344.715 120.506 351.318 131.94 354.671C153.41 360.916 170.135 361.576 186.307 356.75C209.224 349.898 226.85 328.572 245.57 305.976C255.355 294.2 265.492 281.91 276.674 271.606C285.861 263.126 293.702 256.019 302.687 247.996C309.326 240.531 314.963 232.057 320.508 223.878C326.995 214.234 333.791 204.235 342.028 195.7C345.823 191.842 349.365 187.677 352.807 183.617C360.201 174.987 367.84 166.053 377.719 159.805C391.507 150.972 406.778 148.534 421.56 146.199C430.84 144.676 440.431 143.153 449.567 140.106C473.126 132.234 492.199 154.777 506.08 171.279C516.916 184.178 526.651 198.699 536.133 212.809C556.358 243.02 577.223 274.194 610.322 291.049C646.97 310.8 679.816 300.949 711.568 291.408C721.556 288.408 730.993 285.569 740.527 283.635C783.968 274.862 806.384 289.988 828.049 304.661C840.682 313.244 852.614 321.319 868.441 324.869C874.496 326.282 880.766 326.524 886.912 325.582C903.688 323.346 918.716 312.839 934.539 301.666C946.374 293.389 958.705 284.759 972.033 279.58C985.166 274.506 1007.88 268.871 1041.38 270.747C1072.68 272.525 1108.23 274.553 1116.37 236.018C1122.96 204.546 1101.14 180.83 1080.02 157.934C1064.89 141.531 1049.27 124.623 1043.88 104.878C1040.73 93.5541 1041.73 77.205 1043.13 65.4793C1045.43 46.6383 1050.86 27.2976 1056.66 6.88587C1057.26 4.70218 1057.86 2.51848 1058.5 0.28317H1059.2C1058.56 2.57082 1057.91 4.80613 1057.26 7.08876C1051.51 27.5005 1046.02 46.7423 1043.83 65.5782Z" fill="black" fill-opacity="0.3"/>
</svg>
