<svg width="273" height="28" viewBox="0 0 273 28" fill="none" xmlns="http://www.w3.org/2000/svg">
<path d="M5.148 4.976L4.44806 4.26178L4.44449 4.26531L5.148 4.976ZM23.616 4.976L22.9125 5.68669L22.9161 5.69021L23.616 4.976ZM23.616 23.048L24.3159 23.7623L24.3159 23.7622L23.616 23.048ZM5.148 23.048L4.44446 23.7587L4.45174 23.7658L5.148 23.048ZM8.64 19.988L7.91637 20.6782L7.92176 20.6838L8.64 19.988ZM20.16 19.988L20.8783 20.6838L20.8836 20.6782L20.16 19.988ZM20.124 8.036L19.4004 8.72623L19.4059 8.73197L20.124 8.036ZM8.64 8.036L7.92191 7.34L7.91639 7.34579L8.64 8.036ZM5.84793 5.69021C8.03768 3.54425 10.8591 2.448 14.4 2.448V0.447998C10.4049 0.447998 7.05832 1.70374 4.44807 4.26179L5.84793 5.69021ZM14.4 2.448C17.941 2.448 20.7481 3.54419 22.9125 5.68669L24.3195 4.26531C21.7319 1.7038 18.395 0.447998 14.4 0.447998V2.448ZM22.9161 5.69021C25.1053 7.8357 26.216 10.5812 26.216 14.012H28.216C28.216 10.0988 26.9267 6.8203 24.3159 4.26179L22.9161 5.69021ZM26.216 14.012C26.216 17.4428 25.1053 20.1883 22.9161 22.3338L24.3159 23.7622C26.9267 21.2037 28.216 17.9252 28.216 14.012H26.216ZM22.9161 22.3337C20.7524 24.4538 17.944 25.54 14.4 25.54V27.54C18.392 27.54 21.7276 26.2982 24.3159 23.7623L22.9161 22.3337ZM14.4 25.54C10.8561 25.54 8.03345 24.4537 5.84426 22.3302L4.45174 23.7658C7.06256 26.2983 10.4079 27.54 14.4 27.54V25.54ZM5.85151 22.3373C3.68484 20.1925 2.584 17.4459 2.584 14.012H0.584C0.584 17.9221 1.85916 21.1995 4.44449 23.7587L5.85151 22.3373ZM2.584 14.012C2.584 10.5781 3.68484 7.83146 5.85151 5.68669L4.44449 4.26531C1.85916 6.82453 0.584 10.1019 0.584 14.012H2.584ZM7.92176 20.6838C9.61792 22.4347 11.8071 23.292 14.4 23.292V21.292C12.2889 21.292 10.6381 20.6133 9.35824 19.2922L7.92176 20.6838ZM14.4 23.292C16.9929 23.292 19.1821 22.4347 20.8782 20.6838L19.4418 19.2922C18.1619 20.6133 16.5111 21.292 14.4 21.292V23.292ZM20.8836 20.6782C22.5716 18.9086 23.392 16.6584 23.392 14.012H21.392C21.392 16.2136 20.7244 17.9474 19.4364 19.2978L20.8836 20.6782ZM23.392 14.012C23.392 11.3609 22.5565 9.10885 20.8421 7.34003L19.4059 8.73197C20.7155 10.0831 21.392 11.8151 21.392 14.012H23.392ZM20.8476 7.34579C19.1548 5.57103 16.9771 4.696 14.4 4.696V6.696C16.4789 6.696 18.1172 7.38097 19.4004 8.72621L20.8476 7.34579ZM14.4 4.696C11.8229 4.696 9.63677 5.57075 7.92193 7.34003L9.35807 8.73197C10.6672 7.38125 12.3211 6.696 14.4 6.696V4.696ZM7.91639 7.34579C6.22842 9.11543 5.408 11.3656 5.408 14.012H7.408C7.408 11.8104 8.07558 10.0766 9.36361 8.72621L7.91639 7.34579ZM5.408 14.012C5.408 16.6584 6.22842 18.9086 7.91639 20.6782L9.36361 19.2978C8.07558 17.9474 7.408 16.2136 7.408 14.012H5.408ZM44.273 1.988H45.273V0.987998H44.273V1.988ZM44.273 6.02V7.02H45.273V6.02H44.273ZM36.209 6.02V5.02H35.209V6.02H36.209ZM36.209 11.384H35.209V12.384H36.209V11.384ZM43.769 11.384H44.769V10.384H43.769V11.384ZM43.769 15.416V16.416H44.769V15.416H43.769ZM36.209 15.416V14.416H35.209V15.416H36.209ZM36.209 26V27H37.209V26H36.209ZM31.529 26H30.529V27H31.529V26ZM31.529 1.988V0.987998H30.529V1.988H31.529ZM43.273 1.988V6.02H45.273V1.988H43.273ZM44.273 5.02H36.209V7.02H44.273V5.02ZM35.209 6.02V11.384H37.209V6.02H35.209ZM36.209 12.384H43.769V10.384H36.209V12.384ZM42.769 11.384V15.416H44.769V11.384H42.769ZM43.769 14.416H36.209V16.416H43.769V14.416ZM35.209 15.416V26H37.209V15.416H35.209ZM36.209 25H31.529V27H36.209V25ZM32.529 26V1.988H30.529V26H32.529ZM31.529 2.988H44.273V0.987998H31.529V2.988ZM61.0425 1.988H62.0425V0.987998H61.0425V1.988ZM61.0425 6.02V7.02H62.0425V6.02H61.0425ZM52.9785 6.02V5.02H51.9785V6.02H52.9785ZM52.9785 11.384H51.9785V12.384H52.9785V11.384ZM60.5385 11.384H61.5385V10.384H60.5385V11.384ZM60.5385 15.416V16.416H61.5385V15.416H60.5385ZM52.9785 15.416V14.416H51.9785V15.416H52.9785ZM52.9785 26V27H53.9785V26H52.9785ZM48.2985 26H47.2985V27H48.2985V26ZM48.2985 1.988V0.987998H47.2985V1.988H48.2985ZM60.0425 1.988V6.02H62.0425V1.988H60.0425ZM61.0425 5.02H52.9785V7.02H61.0425V5.02ZM51.9785 6.02V11.384H53.9785V6.02H51.9785ZM52.9785 12.384H60.5385V10.384H52.9785V12.384ZM59.5385 11.384V15.416H61.5385V11.384H59.5385ZM60.5385 14.416H52.9785V16.416H60.5385V14.416ZM51.9785 15.416V26H53.9785V15.416H51.9785ZM52.9785 25H48.2985V27H52.9785V25ZM49.2985 26V1.988H47.2985V26H49.2985ZM48.2985 2.988H61.0425V0.987998H48.2985V2.988ZM65.068 1.988V0.987998H64.068V1.988H65.068ZM78.136 3.788L78.783 3.02546L78.7762 3.01978L78.136 3.788ZM77.704 14.84L77.142 14.0128L77.1306 14.0208L77.704 14.84ZM75.076 15.884L74.8931 14.9009L73.3207 15.1934L74.2723 16.479L75.076 15.884ZM82.564 26V27H84.5484L83.3678 25.405L82.564 26ZM76.732 26L75.899 26.5533L76.1957 27H76.732V26ZM70.324 16.352L71.157 15.7987L70.8603 15.352H70.324V16.352ZM69.748 16.352V15.352H68.748V16.352H69.748ZM69.748 26V27H70.748V26H69.748ZM65.068 26H64.068V27H65.068V26ZM69.748 5.804V4.804H68.748V5.804H69.748ZM69.748 13.04H68.748V14.04H69.748V13.04ZM72.196 12.968L72.3282 13.9592L72.3544 13.9557L72.3803 13.9509L72.196 12.968ZM73.672 12.572L73.9768 13.5244L73.9939 13.519L74.0107 13.5129L73.672 12.572ZM75.112 11.456L74.2911 10.8849L74.2858 10.8927L75.112 11.456ZM75.148 7.388L74.3104 7.93427L74.316 7.94286L74.3218 7.95134L75.148 7.388ZM73.708 6.272L73.3693 7.21289L73.3862 7.21896L73.4033 7.22442L73.708 6.272ZM72.268 5.876L72.1359 6.86723L72.1359 6.86723L72.268 5.876ZM65.068 2.988H72.016V0.987998H65.068V2.988ZM72.016 2.988C74.5163 2.988 76.2967 3.5569 77.4958 4.55622L78.7762 3.01978C77.0954 1.6191 74.7957 0.987998 72.016 0.987998V2.988ZM77.4891 4.55051C78.8282 5.68674 79.512 7.19706 79.512 9.188H81.512C81.512 6.66694 80.6119 4.57726 78.783 3.02549L77.4891 4.55051ZM79.512 9.188C79.512 11.3928 78.7085 12.9484 77.142 14.0129L78.2661 15.6671C80.4435 14.1876 81.512 11.9752 81.512 9.188H79.512ZM77.1306 14.0208C76.5481 14.4285 75.8116 14.73 74.8931 14.9009L75.2589 16.8671C76.4044 16.654 77.42 16.2595 78.2775 15.6592L77.1306 14.0208ZM74.2723 16.479L81.7603 26.595L83.3678 25.405L75.8798 15.289L74.2723 16.479ZM82.564 25H76.732V27H82.564V25ZM77.565 25.4467L71.157 15.7987L69.491 16.9053L75.899 26.5533L77.565 25.4467ZM70.324 15.352H69.748V17.352H70.324V15.352ZM68.748 16.352V26H70.748V16.352H68.748ZM69.748 25H65.068V27H69.748V25ZM66.068 26V1.988H64.068V26H66.068ZM68.748 5.804V13.04H70.748V5.804H68.748ZM69.748 14.04H71.08V12.04H69.748V14.04ZM71.08 14.04C71.5057 14.04 71.922 14.0134 72.3282 13.9592L72.0639 11.9768C71.7501 12.0186 71.4223 12.04 71.08 12.04V14.04ZM72.3803 13.9509C72.822 13.8681 73.3581 13.7224 73.9768 13.5244L73.3673 11.6196C72.786 11.8056 72.3381 11.9239 72.0117 11.9851L72.3803 13.9509ZM74.0107 13.5129C74.8094 13.2254 75.4599 12.721 75.9383 12.0193L74.2858 10.8927C74.0442 11.247 73.7346 11.4866 73.3333 11.6311L74.0107 13.5129ZM75.9329 12.0271C76.4565 11.2744 76.688 10.3799 76.688 9.404H74.688C74.688 10.0601 74.5356 10.5336 74.2911 10.8849L75.9329 12.0271ZM76.688 9.404C76.688 8.44251 76.4752 7.5593 75.9743 6.82466L74.3218 7.95134C74.5409 8.2727 74.688 8.73349 74.688 9.404H76.688ZM75.9856 6.84173C75.5063 6.10671 74.8425 5.58508 74.0128 5.31957L73.4033 7.22442C73.7736 7.34292 74.0698 7.56529 74.3104 7.93427L75.9856 6.84173ZM74.0468 5.33111C73.4219 5.10618 72.8643 4.94665 72.4002 4.88477L72.1359 6.86723C72.3918 6.90135 72.7941 7.00582 73.3693 7.21289L74.0468 5.33111ZM72.4002 4.88477C71.994 4.83061 71.5777 4.804 71.152 4.804V6.804C71.4943 6.804 71.8221 6.82539 72.1359 6.86723L72.4002 4.88477ZM71.152 4.804H69.748V6.804H71.152V4.804ZM88.1519 4.976L87.452 4.26178L87.4484 4.26531L88.1519 4.976ZM106.62 4.976L105.916 5.68669L105.92 5.69021L106.62 4.976ZM106.62 23.048L107.32 23.7623L107.32 23.7622L106.62 23.048ZM88.1519 23.048L87.4484 23.7587L87.4557 23.7658L88.1519 23.048ZM91.6439 19.988L90.9203 20.6782L90.9257 20.6838L91.6439 19.988ZM103.164 19.988L103.882 20.6838L103.888 20.6782L103.164 19.988ZM103.128 8.036L102.404 8.72623L102.41 8.73197L103.128 8.036ZM91.6439 8.036L90.9258 7.34L90.9203 7.34579L91.6439 8.036ZM88.8518 5.69021C91.0416 3.54425 93.863 2.448 97.4039 2.448V0.447998C93.4088 0.447998 90.0622 1.70374 87.452 4.26179L88.8518 5.69021ZM97.4039 2.448C100.945 2.448 103.752 3.54419 105.916 5.68669L107.323 4.26531C104.736 1.7038 101.399 0.447998 97.4039 0.447998V2.448ZM105.92 5.69021C108.109 7.8357 109.22 10.5812 109.22 14.012H111.22C111.22 10.0988 109.931 6.8203 107.32 4.26179L105.92 5.69021ZM109.22 14.012C109.22 17.4428 108.109 20.1883 105.92 22.3338L107.32 23.7622C109.931 21.2037 111.22 17.9252 111.22 14.012H109.22ZM105.92 22.3337C103.756 24.4538 100.948 25.54 97.4039 25.54V27.54C101.396 27.54 104.732 26.2982 107.32 23.7623L105.92 22.3337ZM97.4039 25.54C93.86 25.54 91.0374 24.4537 88.8482 22.3302L87.4557 23.7658C90.0665 26.2983 93.4118 27.54 97.4039 27.54V25.54ZM88.8554 22.3373C86.6888 20.1925 85.5879 17.4459 85.5879 14.012H83.5879C83.5879 17.9221 84.8631 21.1995 87.4484 23.7587L88.8554 22.3373ZM85.5879 14.012C85.5879 10.5781 86.6888 7.83146 88.8554 5.68669L87.4484 4.26531C84.8631 6.82453 83.5879 10.1019 83.5879 14.012H85.5879ZM90.9257 20.6838C92.6218 22.4347 94.811 23.292 97.4039 23.292V21.292C95.2928 21.292 93.642 20.6133 92.3621 19.2922L90.9257 20.6838ZM97.4039 23.292C99.9968 23.292 102.186 22.4347 103.882 20.6838L102.446 19.2922C101.166 20.6133 99.515 21.292 97.4039 21.292V23.292ZM103.888 20.6782C105.575 18.9086 106.396 16.6584 106.396 14.012H104.396C104.396 16.2136 103.728 17.9474 102.44 19.2978L103.888 20.6782ZM106.396 14.012C106.396 11.3609 105.56 9.10885 103.846 7.34003L102.41 8.73197C103.719 10.0831 104.396 11.8151 104.396 14.012H106.396ZM103.852 7.34579C102.159 5.57103 99.981 4.696 97.4039 4.696V6.696C99.4828 6.696 101.121 7.38097 102.404 8.72621L103.852 7.34579ZM97.4039 4.696C94.8268 4.696 92.6407 5.57075 90.9258 7.34003L92.362 8.73197C93.6711 7.38125 95.325 6.696 97.4039 6.696V4.696ZM90.9203 7.34579C89.2323 9.11543 88.4119 11.3656 88.4119 14.012H90.4119C90.4119 11.8104 91.0795 10.0766 92.3675 8.72621L90.9203 7.34579ZM88.4119 14.012C88.4119 16.6584 89.2323 18.9086 90.9203 20.6782L92.3675 19.2978C91.0795 17.9474 90.4119 16.2136 90.4119 14.012H88.4119ZM129.787 26L128.866 26.3884L129.123 27H129.787V26ZM127.663 20.96L128.585 20.5716L128.327 19.96H127.663V20.96ZM117.979 20.96V19.96H117.315L117.058 20.5716L117.979 20.96ZM115.855 26V27H116.519L116.777 26.3884L115.855 26ZM110.779 26L109.86 25.6048L109.26 27H110.779V26ZM121.111 1.988V0.987998H120.453L120.192 1.59275L121.111 1.988ZM124.783 1.988L125.706 1.60211L125.449 0.987998H124.783V1.988ZM134.827 26V27H136.329L135.75 25.6141L134.827 26ZM119.455 17.144L118.525 16.776L117.984 18.144H119.455V17.144ZM126.295 17.144V18.144H127.766L127.225 16.776L126.295 17.144ZM122.875 8.504L123.805 8.13595L122.875 5.78697L121.945 8.13595L122.875 8.504ZM130.709 25.6116L128.585 20.5716L126.742 21.3484L128.866 26.3884L130.709 25.6116ZM127.663 19.96H117.979V21.96H127.663V19.96ZM117.058 20.5716L114.934 25.6116L116.777 26.3884L118.901 21.3484L117.058 20.5716ZM115.855 25H110.779V27H115.855V25ZM111.698 26.3952L122.03 2.38325L120.192 1.59275L109.86 25.6048L111.698 26.3952ZM121.111 2.988H124.783V0.987998H121.111V2.988ZM123.86 2.37389L133.904 26.3859L135.75 25.6141L125.706 1.60211L123.86 2.37389ZM134.827 25H129.787V27H134.827V25ZM119.455 18.144H126.295V16.144H119.455V18.144ZM127.225 16.776L123.805 8.13595L121.945 8.87205L125.365 17.512L127.225 16.776ZM121.945 8.13595L118.525 16.776L120.385 17.512L123.805 8.87205L121.945 8.13595ZM137.631 1.988V0.987998H136.631V1.988H137.631ZM148.863 2.492L148.632 3.46498L148.639 3.46684L148.647 3.46857L148.863 2.492ZM152.823 4.328L153.425 3.52956L153.42 3.52612L152.823 4.328ZM156.207 8.504L155.302 8.93045L155.307 8.9409L156.207 8.504ZM152.607 23.696L152.032 22.8773L152.031 22.8782L152.607 23.696ZM148.647 25.532L148.873 26.5061L148.647 25.532ZM137.631 26H136.631V27H137.631V26ZM142.311 6.02V5.02H141.311V6.02H142.311ZM142.311 21.968H141.311V22.968H142.311V21.968ZM149.619 20.384L149.035 19.5717L149.034 19.573L149.619 20.384ZM151.815 17.684L152.72 18.108L152.724 18.1007L151.815 17.684ZM151.815 10.412L150.898 10.8128L150.903 10.8244L150.909 10.8359L151.815 10.412ZM149.655 7.604L150.264 6.81137L150.258 6.80683L150.252 6.80237L149.655 7.604ZM137.631 2.988H143.895V0.987998H137.631V2.988ZM143.895 2.988C145.735 2.988 147.31 3.15139 148.632 3.46498L149.093 1.51902C147.583 1.16061 145.846 0.987998 143.895 0.987998V2.988ZM148.647 3.46857C149.918 3.74849 151.109 4.29798 152.225 5.12988L153.42 3.52612C152.089 2.53401 150.639 1.85951 149.078 1.51542L148.647 3.46857ZM152.22 5.12642C153.553 6.13147 154.578 7.39513 155.302 8.93042L157.111 8.07758C156.251 6.25287 155.02 4.73252 153.425 3.52957L152.22 5.12642ZM155.307 8.9409C156.053 10.4758 156.431 12.1611 156.431 14.012H158.431C158.431 11.8789 157.993 9.89222 157.106 8.06709L155.307 8.9409ZM156.431 14.012C156.431 17.9126 154.96 20.8233 152.032 22.8773L153.181 24.5147C156.685 22.0567 158.431 18.5114 158.431 14.012H156.431ZM152.031 22.8782C150.825 23.727 149.622 24.279 148.42 24.5579L148.873 26.5061C150.359 26.161 151.796 25.489 153.182 24.5138L152.031 22.8782ZM148.42 24.5579C147.171 24.8478 145.643 25 143.823 25V27C145.746 27 147.434 26.8402 148.873 26.5061L148.42 24.5579ZM143.823 25H137.631V27H143.823V25ZM138.631 26V1.988H136.631V26H138.631ZM141.311 6.02V21.968H143.311V6.02H141.311ZM142.311 22.968H143.751V20.968H142.311V22.968ZM143.751 22.968C146.335 22.968 148.518 22.4108 150.204 21.195L149.034 19.573C147.791 20.4692 146.062 20.968 143.751 20.968V22.968ZM150.202 21.1963C151.288 20.4166 152.126 19.3779 152.72 18.1079L150.909 17.2601C150.447 18.246 149.821 19.0074 149.035 19.5717L150.202 21.1963ZM152.724 18.1007C153.313 16.8149 153.607 15.4484 153.607 14.012H151.607C151.607 15.1676 151.372 16.2491 150.905 17.2673L152.724 18.1007ZM153.607 14.012C153.607 12.5967 153.312 11.2516 152.72 9.98806L150.909 10.8359C151.373 11.8284 151.607 12.8833 151.607 14.012H153.607ZM152.731 10.0112C152.164 8.71518 151.342 7.64074 150.264 6.81137L149.045 8.39662C149.839 9.00726 150.457 9.80482 150.898 10.8128L152.731 10.0112ZM150.252 6.80237C148.604 5.57296 146.397 5.02 143.751 5.02V7.02C146.144 7.02 147.873 7.52304 149.057 8.40563L150.252 6.80237ZM143.751 5.02H142.311V7.02H143.751V5.02ZM184.406 4.256L185.201 4.86312L185.725 4.17677L185.122 3.55813L184.406 4.256ZM181.958 7.46L181.16 8.06224L181.953 9.11375L182.753 8.06712L181.958 7.46ZM175.514 6.272L176.237 6.96322L176.244 6.95555L176.251 6.94772L175.514 6.272ZM175.478 9.836L176.162 9.10646L176.146 9.09123L176.129 9.07674L175.478 9.836ZM178.358 11.204L178.02 12.1451L178.027 12.1475L178.033 12.1498L178.358 11.204ZM183.218 13.616L182.542 14.3532L182.551 14.3612L183.218 13.616ZM182.93 24.38L183.614 25.1095L183.614 25.1092L182.93 24.38ZM168.638 22.004L167.948 21.2801L167.333 21.8661L167.812 22.5677L168.638 22.004ZM171.698 19.088L172.596 18.6488L171.997 17.4221L171.008 18.3641L171.698 19.088ZM173.894 21.5L173.403 22.371L173.894 21.5ZM179.402 21.392L180.055 22.1494L180.062 22.1431L180.07 22.1366L179.402 21.392ZM179.51 16.82L180.203 16.0992L180.195 16.0909L180.186 16.0828L179.51 16.82ZM175.802 15.056L176.125 14.1097L176.122 14.1086L175.802 15.056ZM171.806 12.968L172.472 12.2216L172.462 12.2128L171.806 12.968ZM171.878 3.536L172.598 4.2304L172.604 4.22409L171.878 3.536ZM183.611 3.64888L181.163 6.85288L182.753 8.06712L185.201 4.86312L183.611 3.64888ZM182.756 6.85776C181.553 5.26301 179.96 4.408 178.034 4.408V6.408C179.276 6.408 180.299 6.92099 181.16 8.06224L182.756 6.85776ZM178.034 4.408C176.736 4.408 175.569 4.73205 174.777 5.59627L176.251 6.94772C176.515 6.65995 177.028 6.408 178.034 6.408V4.408ZM174.791 5.58078C174.091 6.31335 173.722 7.20693 173.722 8.216H175.722C175.722 7.73707 175.881 7.33465 176.237 6.96322L174.791 5.58078ZM173.722 8.216C173.722 9.16401 174.108 9.9786 174.827 10.5953L176.129 9.07674C175.84 8.8294 175.722 8.56399 175.722 8.216H173.722ZM174.794 10.5655C175.105 10.8567 175.559 11.1145 176.057 11.3513C176.578 11.5987 177.235 11.8632 178.02 12.1451L178.696 10.2629C177.945 9.99283 177.354 9.75331 176.915 9.54472C176.454 9.3255 176.235 9.17534 176.162 9.10646L174.794 10.5655ZM178.033 12.1498C180.394 12.9606 181.842 13.711 182.542 14.3532L183.894 12.8788C182.866 11.937 181.074 11.0794 178.683 10.2582L178.033 12.1498ZM182.551 14.3612C183.672 15.3639 184.27 16.7533 184.27 18.656H186.27C186.27 16.2867 185.5 14.3161 183.885 12.8708L182.551 14.3612ZM184.27 18.656C184.27 20.7622 183.583 22.3957 182.246 23.6508L183.614 25.1092C185.397 23.4363 186.27 21.2538 186.27 18.656H184.27ZM182.246 23.6505C180.927 24.8869 179.183 25.54 176.918 25.54V27.54C179.597 27.54 181.861 26.7531 183.614 25.1095L182.246 23.6505ZM176.918 25.54C173.815 25.54 171.355 24.2105 169.464 21.4403L167.812 22.5677C170.049 25.8455 173.109 27.54 176.918 27.54V25.54ZM169.328 22.7279L172.388 19.8119L171.008 18.3641L167.948 21.2801L169.328 22.7279ZM170.8 19.5272C171.406 20.7666 172.27 21.732 173.403 22.371L174.385 20.629C173.646 20.212 173.047 19.5694 172.596 18.6488L170.8 19.5272ZM173.403 22.371C174.47 22.9733 175.586 23.292 176.738 23.292V21.292C175.97 21.292 175.19 21.0827 174.385 20.629L173.403 22.371ZM176.738 23.292C178.013 23.292 179.147 22.9326 180.055 22.1494L178.749 20.6346C178.266 21.0514 177.623 21.292 176.738 21.292V23.292ZM180.07 22.1366C180.989 21.3119 181.446 20.2312 181.446 18.98H179.446C179.446 19.6968 179.207 20.2241 178.735 20.6474L180.07 22.1366ZM181.446 18.98C181.446 17.8588 181.017 16.8812 180.203 16.0992L178.817 17.5408C179.252 17.9588 179.446 18.4212 179.446 18.98H181.446ZM180.186 16.0828C179.789 15.7194 179.232 15.3898 178.581 15.08C177.916 14.7639 177.095 14.441 176.125 14.1097L175.479 16.0023C176.405 16.319 177.15 16.6141 177.721 16.886C178.306 17.1642 178.655 17.3926 178.834 17.5572L180.186 16.0828ZM176.122 14.1086C174.408 13.5296 173.218 12.8875 172.472 12.2217L171.14 13.7143C172.17 14.6325 173.644 15.3824 175.482 16.0034L176.122 14.1086ZM172.462 12.2128C171.434 11.3212 170.898 10.1224 170.898 8.504H168.898C168.898 10.6296 169.634 12.4068 171.151 13.7232L172.462 12.2128ZM170.898 8.504C170.898 6.8125 171.462 5.40732 172.598 4.23037L171.158 2.84163C169.654 4.40068 168.898 6.30749 168.898 8.504H170.898ZM172.604 4.22409C173.682 3.0865 175.294 2.448 177.602 2.448V0.447998C174.918 0.447998 172.714 1.2015 171.152 2.84791L172.604 4.22409ZM177.602 2.448C180.056 2.448 182.062 3.28304 183.69 4.95386L185.122 3.55813C183.102 1.48496 180.572 0.447998 177.602 0.447998V2.448ZM202.701 1.988H203.701V0.987998H202.701V1.988ZM202.701 6.02V7.02H203.701V6.02H202.701ZM194.061 6.02V5.02H193.061V6.02H194.061ZM194.061 11.384H193.061V12.384H194.061V11.384ZM202.341 11.384H203.341V10.384H202.341V11.384ZM202.341 15.416V16.416H203.341V15.416H202.341ZM194.061 15.416V14.416H193.061V15.416H194.061ZM194.061 21.968H193.061V22.968H194.061V21.968ZM202.701 21.968H203.701V20.968H202.701V21.968ZM202.701 26V27H203.701V26H202.701ZM189.381 26H188.381V27H189.381V26ZM189.381 1.988V0.987998H188.381V1.988H189.381ZM201.701 1.988V6.02H203.701V1.988H201.701ZM202.701 5.02H194.061V7.02H202.701V5.02ZM193.061 6.02V11.384H195.061V6.02H193.061ZM194.061 12.384H202.341V10.384H194.061V12.384ZM201.341 11.384V15.416H203.341V11.384H201.341ZM202.341 14.416H194.061V16.416H202.341V14.416ZM193.061 15.416V21.968H195.061V15.416H193.061ZM194.061 22.968H202.701V20.968H194.061V22.968ZM201.701 21.968V26H203.701V21.968H201.701ZM202.701 25H189.381V27H202.701V25ZM190.381 26V1.988H188.381V26H190.381ZM189.381 2.988H202.701V0.987998H189.381V2.988ZM207.24 1.988V0.987998H206.24V1.988H207.24ZM220.308 3.788L220.955 3.02546L220.948 3.01978L220.308 3.788ZM219.876 14.84L219.314 14.0128L219.302 14.0208L219.876 14.84ZM217.248 15.884L217.065 14.9009L215.493 15.1934L216.444 16.479L217.248 15.884ZM224.736 26V27H226.72L225.54 25.405L224.736 26ZM218.904 26L218.071 26.5533L218.368 27H218.904V26ZM212.496 16.352L213.329 15.7987L213.032 15.352H212.496V16.352ZM211.92 16.352V15.352H210.92V16.352H211.92ZM211.92 26V27H212.92V26H211.92ZM207.24 26H206.24V27H207.24V26ZM211.92 5.804V4.804H210.92V5.804H211.92ZM211.92 13.04H210.92V14.04H211.92V13.04ZM214.368 12.968L214.5 13.9592L214.526 13.9557L214.552 13.9509L214.368 12.968ZM215.844 12.572L216.149 13.5244L216.166 13.519L216.183 13.5129L215.844 12.572ZM217.284 11.456L216.463 10.8849L216.458 10.8927L217.284 11.456ZM217.32 7.388L216.482 7.93427L216.488 7.94286L216.494 7.95134L217.32 7.388ZM215.88 6.272L215.541 7.21289L215.558 7.21896L215.575 7.22442L215.88 6.272ZM214.44 5.876L214.308 6.86723V6.86723L214.44 5.876ZM207.24 2.988H214.188V0.987998H207.24V2.988ZM214.188 2.988C216.688 2.988 218.469 3.5569 219.668 4.55622L220.948 3.01978C219.267 1.6191 216.968 0.987998 214.188 0.987998V2.988ZM219.661 4.55051C221 5.68674 221.684 7.19706 221.684 9.188H223.684C223.684 6.66694 222.784 4.57726 220.955 3.02549L219.661 4.55051ZM221.684 9.188C221.684 11.3928 220.88 12.9484 219.314 14.0129L220.438 15.6671C222.615 14.1876 223.684 11.9752 223.684 9.188H221.684ZM219.302 14.0208C218.72 14.4285 217.983 14.73 217.065 14.9009L217.431 16.8671C218.576 16.654 219.592 16.2595 220.449 15.6592L219.302 14.0208ZM216.444 16.479L223.932 26.595L225.54 25.405L218.052 15.289L216.444 16.479ZM224.736 25H218.904V27H224.736V25ZM219.737 25.4467L213.329 15.7987L211.663 16.9053L218.071 26.5533L219.737 25.4467ZM212.496 15.352H211.92V17.352H212.496V15.352ZM210.92 16.352V26H212.92V16.352H210.92ZM211.92 25H207.24V27H211.92V25ZM208.24 26V1.988H206.24V26H208.24ZM210.92 5.804V13.04H212.92V5.804H210.92ZM211.92 14.04H213.252V12.04H211.92V14.04ZM213.252 14.04C213.678 14.04 214.094 14.0134 214.5 13.9592L214.236 11.9768C213.922 12.0186 213.594 12.04 213.252 12.04V14.04ZM214.552 13.9509C214.994 13.8681 215.53 13.7224 216.149 13.5244L215.539 11.6196C214.958 11.8056 214.51 11.9239 214.184 11.9851L214.552 13.9509ZM216.183 13.5129C216.981 13.2254 217.632 12.721 218.11 12.0193L216.458 10.8927C216.216 11.247 215.907 11.4866 215.505 11.6311L216.183 13.5129ZM218.105 12.0271C218.628 11.2744 218.86 10.3799 218.86 9.404H216.86C216.86 10.0601 216.707 10.5336 216.463 10.8849L218.105 12.0271ZM218.86 9.404C218.86 8.44251 218.647 7.5593 218.146 6.82466L216.494 7.95134C216.713 8.2727 216.86 8.73349 216.86 9.404H218.86ZM218.158 6.84173C217.678 6.10671 217.014 5.58508 216.185 5.31957L215.575 7.22442C215.945 7.34292 216.242 7.56529 216.482 7.93427L218.158 6.84173ZM216.219 5.33111C215.594 5.10618 215.036 4.94665 214.572 4.88477L214.308 6.86723C214.564 6.90135 214.966 7.00582 215.541 7.21289L216.219 5.33111ZM214.572 4.88477C214.166 4.83061 213.75 4.804 213.324 4.804V6.804C213.666 6.804 213.994 6.82539 214.308 6.86723L214.572 4.88477ZM213.324 4.804H211.92V6.804H213.324V4.804ZM227.912 1.988V0.987998H226.912V1.988H227.912ZM232.592 1.988H233.592V0.987998H232.592V1.988ZM232.592 26V27H233.592V26H232.592ZM227.912 26H226.912V27H227.912V26ZM227.912 2.988H232.592V0.987998H227.912V2.988ZM231.592 1.988V26H233.592V1.988H231.592ZM232.592 25H227.912V27H232.592V25ZM228.912 26V1.988H226.912V26H228.912ZM251.392 1.988H252.392V0.987998H251.392V1.988ZM251.392 6.02V7.02H252.392V6.02H251.392ZM242.752 6.02V5.02H241.752V6.02H242.752ZM242.752 11.384H241.752V12.384H242.752V11.384ZM251.032 11.384H252.032V10.384H251.032V11.384ZM251.032 15.416V16.416H252.032V15.416H251.032ZM242.752 15.416V14.416H241.752V15.416H242.752ZM242.752 21.968H241.752V22.968H242.752V21.968ZM251.392 21.968H252.392V20.968H251.392V21.968ZM251.392 26V27H252.392V26H251.392ZM238.072 26H237.072V27H238.072V26ZM238.072 1.988V0.987998H237.072V1.988H238.072ZM250.392 1.988V6.02H252.392V1.988H250.392ZM251.392 5.02H242.752V7.02H251.392V5.02ZM241.752 6.02V11.384H243.752V6.02H241.752ZM242.752 12.384H251.032V10.384H242.752V12.384ZM250.032 11.384V15.416H252.032V11.384H250.032ZM251.032 14.416H242.752V16.416H251.032V14.416ZM241.752 15.416V21.968H243.752V15.416H241.752ZM242.752 22.968H251.392V20.968H242.752V22.968ZM250.392 21.968V26H252.392V21.968H250.392ZM251.392 25H238.072V27H251.392V25ZM239.072 26V1.988H237.072V26H239.072ZM238.072 2.988H251.392V0.987998H238.072V2.988ZM270.187 4.256L270.982 4.86312L271.506 4.17677L270.904 3.55813L270.187 4.256ZM267.739 7.46L266.941 8.06224L267.734 9.11375L268.534 8.06712L267.739 7.46ZM261.295 6.272L262.018 6.96322L262.025 6.95555L262.032 6.94772L261.295 6.272ZM261.259 9.836L261.943 9.10646L261.927 9.09123L261.91 9.07674L261.259 9.836ZM264.139 11.204L263.801 12.1451L263.808 12.1475L263.815 12.1498L264.139 11.204ZM268.999 13.616L268.324 14.3532L268.333 14.3612L268.999 13.616ZM268.711 24.38L269.395 25.1095L269.396 25.1092L268.711 24.38ZM254.419 22.004L253.729 21.2801L253.114 21.8661L253.593 22.5677L254.419 22.004ZM257.479 19.088L258.378 18.6488L257.778 17.4221L256.789 18.3641L257.479 19.088ZM259.675 21.5L259.184 22.371L259.675 21.5ZM265.183 21.392L265.836 22.1494L265.844 22.1431L265.851 22.1366L265.183 21.392ZM265.291 16.82L265.984 16.0992L265.976 16.0909L265.967 16.0828L265.291 16.82ZM261.583 15.056L261.907 14.1097L261.903 14.1086L261.583 15.056ZM257.587 12.968L258.253 12.2216L258.243 12.2128L257.587 12.968ZM257.659 3.536L258.379 4.2304L258.385 4.22409L257.659 3.536ZM269.393 3.64888L266.945 6.85288L268.534 8.06712L270.982 4.86312L269.393 3.64888ZM268.538 6.85776C267.335 5.26301 265.742 4.408 263.815 4.408V6.408C265.057 6.408 266.08 6.92099 266.941 8.06224L268.538 6.85776ZM263.815 4.408C262.517 4.408 261.35 4.73205 260.558 5.59627L262.032 6.94772C262.296 6.65995 262.81 6.408 263.815 6.408V4.408ZM260.573 5.58078C259.872 6.31335 259.503 7.20693 259.503 8.216H261.503C261.503 7.73707 261.663 7.33465 262.018 6.96322L260.573 5.58078ZM259.503 8.216C259.503 9.16401 259.889 9.9786 260.609 10.5953L261.91 9.07674C261.622 8.8294 261.503 8.56399 261.503 8.216H259.503ZM260.575 10.5655C260.886 10.8567 261.34 11.1145 261.838 11.3513C262.359 11.5987 263.017 11.8632 263.801 12.1451L264.478 10.2629C263.726 9.99283 263.135 9.75331 262.696 9.54472C262.235 9.3255 262.017 9.17534 261.943 9.10646L260.575 10.5655ZM263.815 12.1498C266.176 12.9606 267.623 13.711 268.324 14.3532L269.675 12.8788C268.648 11.937 266.855 11.0794 264.464 10.2582L263.815 12.1498ZM268.333 14.3612C269.453 15.3639 270.051 16.7533 270.051 18.656H272.051C272.051 16.2867 271.282 14.3161 269.666 12.8708L268.333 14.3612ZM270.051 18.656C270.051 20.7622 269.364 22.3957 268.027 23.6508L269.396 25.1092C271.178 23.4363 272.051 21.2538 272.051 18.656H270.051ZM268.027 23.6505C266.708 24.8869 264.964 25.54 262.699 25.54V27.54C265.378 27.54 267.642 26.7531 269.395 25.1095L268.027 23.6505ZM262.699 25.54C259.596 25.54 257.136 24.2105 255.245 21.4403L253.593 22.5677C255.831 25.8455 258.89 27.54 262.699 27.54V25.54ZM255.109 22.7279L258.169 19.8119L256.789 18.3641L253.729 21.2801L255.109 22.7279ZM256.581 19.5272C257.187 20.7666 258.051 21.732 259.184 22.371L260.167 20.629C259.427 20.212 258.828 19.5694 258.378 18.6488L256.581 19.5272ZM259.184 22.371C260.252 22.9733 261.367 23.292 262.519 23.292V21.292C261.751 21.292 260.971 21.0827 260.167 20.629L259.184 22.371ZM262.519 23.292C263.795 23.292 264.928 22.9326 265.836 22.1494L264.53 20.6346C264.047 21.0514 263.404 21.292 262.519 21.292V23.292ZM265.851 22.1366C266.771 21.3119 267.227 20.2312 267.227 18.98H265.227C265.227 19.6968 264.988 20.2241 264.516 20.6474L265.851 22.1366ZM267.227 18.98C267.227 17.8588 266.798 16.8812 265.984 16.0992L264.598 17.5408C265.033 17.9588 265.227 18.4212 265.227 18.98H267.227ZM265.967 16.0828C265.571 15.7194 265.013 15.3898 264.362 15.08C263.698 14.7639 262.876 14.441 261.907 14.1097L261.26 16.0023C262.187 16.319 262.931 16.6141 263.503 16.886C264.088 17.1642 264.436 17.3926 264.616 17.5572L265.967 16.0828ZM261.903 14.1086C260.19 13.5296 258.999 12.8875 258.253 12.2217L256.922 13.7143C257.951 14.6325 259.425 15.3824 261.263 16.0034L261.903 14.1086ZM258.243 12.2128C257.216 11.3212 256.679 10.1224 256.679 8.504H254.679C254.679 10.6296 255.415 12.4068 256.932 13.7232L258.243 12.2128ZM256.679 8.504C256.679 6.8125 257.243 5.40732 258.379 4.23037L256.94 2.84163C255.435 4.40068 254.679 6.30749 254.679 8.504H256.679ZM258.385 4.22409C259.464 3.0865 261.075 2.448 263.383 2.448V0.447998C260.7 0.447998 258.495 1.2015 256.934 2.84791L258.385 4.22409ZM263.383 2.448C265.837 2.448 267.843 3.28304 269.471 4.95386L270.904 3.55813C268.884 1.48496 266.354 0.447998 263.383 0.447998V2.448Z" fill="white"/>
</svg>
