<svg width="209" height="28" viewBox="0 0 209 28" fill="none" xmlns="http://www.w3.org/2000/svg">
<path d="M1.736 1.988V0.987998H0.736V1.988H1.736ZM14.804 3.788L15.451 3.02546L15.4442 3.01978L14.804 3.788ZM14.372 14.84L13.8099 14.0128L13.7985 14.0208L14.372 14.84ZM11.744 15.884L11.5611 14.9009L9.98867 15.1934L10.9402 16.479L11.744 15.884ZM19.232 26V27H21.2164L20.0358 25.405L19.232 26ZM13.4 26L12.567 26.5533L12.8637 27H13.4V26ZM6.992 16.352L7.82501 15.7987L7.52829 15.352H6.992V16.352ZM6.416 16.352V15.352H5.416V16.352H6.416ZM6.416 26V27H7.416V26H6.416ZM1.736 26H0.736V27H1.736V26ZM6.416 5.804V4.804H5.416V5.804H6.416ZM6.416 13.04H5.416V14.04H6.416V13.04ZM8.864 12.968L8.99616 13.9592L9.02234 13.9557L9.04829 13.9509L8.864 12.968ZM10.34 12.572L10.6448 13.5244L10.6619 13.519L10.6787 13.5129L10.34 12.572ZM11.78 11.456L10.9591 10.8849L10.9538 10.8927L11.78 11.456ZM11.816 7.388L10.9784 7.93427L10.984 7.94286L10.9898 7.95134L11.816 7.388ZM10.376 6.272L10.0373 7.21289L10.0541 7.21896L10.0712 7.22442L10.376 6.272ZM8.936 5.876L8.80383 6.86723L8.80384 6.86723L8.936 5.876ZM1.736 2.988H8.684V0.987998H1.736V2.988ZM8.684 2.988C11.1843 2.988 12.9646 3.5569 14.1638 4.55622L15.4442 3.01978C13.7634 1.6191 11.4637 0.987998 8.684 0.987998V2.988ZM14.157 4.55051C15.4962 5.68674 16.18 7.19706 16.18 9.188H18.18C18.18 6.66694 17.2798 4.57726 15.451 3.02549L14.157 4.55051ZM16.18 9.188C16.18 11.3928 15.3765 12.9484 13.81 14.0129L14.934 15.6671C17.1115 14.1876 18.18 11.9752 18.18 9.188H16.18ZM13.7985 14.0208C13.216 14.4285 12.4796 14.73 11.5611 14.9009L11.9269 16.8671C13.0724 16.654 14.088 16.2595 14.9455 15.6592L13.7985 14.0208ZM10.9402 16.479L18.4282 26.595L20.0358 25.405L12.5478 15.289L10.9402 16.479ZM19.232 25H13.4V27H19.232V25ZM14.233 25.4467L7.82501 15.7987L6.159 16.9053L12.567 26.5533L14.233 25.4467ZM6.992 15.352H6.416V17.352H6.992V15.352ZM5.416 16.352V26H7.416V16.352H5.416ZM6.416 25H1.736V27H6.416V25ZM2.736 26V1.988H0.736V26H2.736ZM5.416 5.804V13.04H7.416V5.804H5.416ZM6.416 14.04H7.748V12.04H6.416V14.04ZM7.748 14.04C8.1737 14.04 8.58994 14.0134 8.99616 13.9592L8.73184 11.9768C8.41806 12.0186 8.09031 12.04 7.748 12.04V14.04ZM9.04829 13.9509C9.48996 13.8681 10.026 13.7224 10.6448 13.5244L10.0352 11.6196C9.45397 11.8056 9.00604 11.9239 8.67971 11.9851L9.04829 13.9509ZM10.6787 13.5129C11.4774 13.2254 12.1278 12.721 12.6062 12.0193L10.9538 10.8927C10.7122 11.247 10.4026 11.4866 10.0013 11.6311L10.6787 13.5129ZM12.6009 12.0271C13.1245 11.2744 13.356 10.3799 13.356 9.404H11.356C11.356 10.0601 11.2035 10.5336 10.9591 10.8849L12.6009 12.0271ZM13.356 9.404C13.356 8.44251 13.1431 7.5593 12.6422 6.82466L10.9898 7.95134C11.2089 8.2727 11.356 8.73349 11.356 9.404H13.356ZM12.6536 6.84173C12.1742 6.10671 11.5105 5.58508 10.6808 5.31957L10.0712 7.22442C10.4415 7.34292 10.7378 7.56529 10.9784 7.93427L12.6536 6.84173ZM10.7147 5.33111C10.0899 5.10618 9.53222 4.94665 9.06816 4.88477L8.80384 6.86723C9.05978 6.90135 9.4621 7.00582 10.0373 7.21289L10.7147 5.33111ZM9.06817 4.88477C8.66194 4.83061 8.2457 4.804 7.82 4.804V6.804C8.1623 6.804 8.49006 6.82539 8.80383 6.86723L9.06817 4.88477ZM7.82 4.804H6.416V6.804H7.82V4.804ZM24.8199 4.976L24.1199 4.26178L24.1164 4.26531L24.8199 4.976ZM43.2879 4.976L42.5844 5.68669L42.5879 5.69021L43.2879 4.976ZM43.2879 23.048L43.9877 23.7623L43.9878 23.7622L43.2879 23.048ZM24.8199 23.048L24.1163 23.7587L24.1236 23.7658L24.8199 23.048ZM28.3119 19.988L27.5882 20.6782L27.5936 20.6838L28.3119 19.988ZM39.8319 19.988L40.5501 20.6838L40.5555 20.6782L39.8319 19.988ZM39.7959 8.036L39.0722 8.72623L39.0778 8.73197L39.7959 8.036ZM28.3119 8.036L27.5938 7.34L27.5883 7.34579L28.3119 8.036ZM25.5198 5.69021C27.7096 3.54425 30.531 2.448 34.0719 2.448V0.447998C30.0767 0.447998 26.7302 1.70374 24.1199 4.26179L25.5198 5.69021ZM34.0719 2.448C37.6129 2.448 40.42 3.54419 42.5844 5.68669L43.9914 4.26531C41.4037 1.7038 38.0669 0.447998 34.0719 0.447998V2.448ZM42.5879 5.69021C44.7772 7.8357 45.8879 10.5812 45.8879 14.012H47.8879C47.8879 10.0988 46.5985 6.8203 43.9878 4.26179L42.5879 5.69021ZM45.8879 14.012C45.8879 17.4428 44.7772 20.1883 42.5879 22.3338L43.9878 23.7622C46.5985 21.2037 47.8879 17.9252 47.8879 14.012H45.8879ZM42.588 22.3337C40.4243 24.4538 37.6159 25.54 34.0719 25.54V27.54C38.0638 27.54 41.3995 26.2982 43.9877 23.7623L42.588 22.3337ZM34.0719 25.54C30.528 25.54 27.7053 24.4537 25.5161 22.3302L24.1236 23.7658C26.7344 26.2983 30.0798 27.54 34.0719 27.54V25.54ZM25.5234 22.3373C23.3567 20.1925 22.2559 17.4459 22.2559 14.012H20.2559C20.2559 17.9221 21.531 21.1995 24.1164 23.7587L25.5234 22.3373ZM22.2559 14.012C22.2559 10.5781 23.3567 7.83146 25.5234 5.68669L24.1164 4.26531C21.531 6.82453 20.2559 10.1019 20.2559 14.012H22.2559ZM27.5936 20.6838C29.2898 22.4347 31.479 23.292 34.0719 23.292V21.292C31.9608 21.292 30.31 20.6133 29.0301 19.2922L27.5936 20.6838ZM34.0719 23.292C36.6648 23.292 38.854 22.4347 40.5501 20.6838L39.1136 19.2922C37.8338 20.6133 36.183 21.292 34.0719 21.292V23.292ZM40.5555 20.6782C42.2435 18.9086 43.0639 16.6584 43.0639 14.012H41.0639C41.0639 16.2136 40.3963 17.9474 39.1083 19.2978L40.5555 20.6782ZM43.0639 14.012C43.0639 11.3609 42.2283 9.10885 40.5139 7.34003L39.0778 8.73197C40.3874 10.0831 41.0639 11.8151 41.0639 14.012H43.0639ZM40.5195 7.34579C38.8266 5.57103 36.649 4.696 34.0719 4.696V6.696C36.1508 6.696 37.7891 7.38097 39.0723 8.72621L40.5195 7.34579ZM34.0719 4.696C31.4948 4.696 29.3086 5.57075 27.5938 7.34003L29.0299 8.73197C30.3391 7.38125 31.993 6.696 34.0719 6.696V4.696ZM27.5883 7.34579C25.9003 9.11543 25.0799 11.3656 25.0799 14.012H27.0799C27.0799 11.8104 27.7475 10.0766 29.0355 8.72621L27.5883 7.34579ZM25.0799 14.012C25.0799 16.6584 25.9003 18.9086 27.5883 20.6782L29.0355 19.2978C27.7475 17.9474 27.0799 16.2136 27.0799 14.012H25.0799ZM66.455 26L65.5335 26.3884L65.7913 27H66.455V26ZM64.331 20.96L65.2525 20.5716L64.9947 19.96H64.331V20.96ZM54.647 20.96V19.96H53.9833L53.7255 20.5716L54.647 20.96ZM52.523 26V27H53.1867L53.4445 26.3884L52.523 26ZM47.447 26L46.5284 25.6048L45.9281 27H47.447V26ZM57.779 1.988V0.987998H57.1206L56.8604 1.59275L57.779 1.988ZM61.451 1.988L62.3735 1.60211L62.1167 0.987998H61.451V1.988ZM71.495 26V27H72.9973L72.4175 25.6141L71.495 26ZM56.123 17.144L55.1932 16.776L54.6517 18.144H56.123V17.144ZM62.963 17.144V18.144H64.4343L63.8928 16.776L62.963 17.144ZM59.543 8.504L60.4728 8.13595L59.543 5.78697L58.6132 8.13595L59.543 8.504ZM67.3765 25.6116L65.2525 20.5716L63.4095 21.3484L65.5335 26.3884L67.3765 25.6116ZM64.331 19.96H54.647V21.96H64.331V19.96ZM53.7255 20.5716L51.6015 25.6116L53.4445 26.3884L55.5685 21.3484L53.7255 20.5716ZM52.523 25H47.447V27H52.523V25ZM48.3656 26.3952L58.6976 2.38325L56.8604 1.59275L46.5284 25.6048L48.3656 26.3952ZM57.779 2.988H61.451V0.987998H57.779V2.988ZM60.5285 2.37389L70.5725 26.3859L72.4175 25.6141L62.3735 1.60211L60.5285 2.37389ZM71.495 25H66.455V27H71.495V25ZM56.123 18.144H62.963V16.144H56.123V18.144ZM63.8928 16.776L60.4728 8.13595L58.6132 8.87205L62.0332 17.512L63.8928 16.776ZM58.6132 8.13595L55.1932 16.776L57.0528 17.512L60.4728 8.87205L58.6132 8.13595ZM74.2985 1.988V0.987998H73.2985V1.988H74.2985ZM85.5305 2.492L85.2996 3.46498L85.3075 3.46684L85.3153 3.46857L85.5305 2.492ZM89.4905 4.328L90.0926 3.52956L90.088 3.52612L89.4905 4.328ZM92.8745 8.504L91.9699 8.93045L91.975 8.9409L92.8745 8.504ZM89.2745 23.696L88.7002 22.8773L88.699 22.8782L89.2745 23.696ZM85.3145 25.532L85.5406 26.5061L85.3145 25.532ZM74.2985 26H73.2985V27H74.2985V26ZM78.9785 6.02V5.02H77.9785V6.02H78.9785ZM78.9785 21.968H77.9785V22.968H78.9785V21.968ZM86.2865 20.384L85.7033 19.5717L85.7015 19.573L86.2865 20.384ZM88.4825 17.684L89.3882 18.108L89.3916 18.1007L88.4825 17.684ZM88.4825 10.412L87.5663 10.8128L87.5714 10.8244L87.5768 10.8359L88.4825 10.412ZM86.3225 7.604L86.9322 6.81137L86.9263 6.80683L86.9203 6.80237L86.3225 7.604ZM74.2985 2.988H80.5625V0.987998H74.2985V2.988ZM80.5625 2.988C82.4028 2.988 83.978 3.15139 85.2996 3.46498L85.7614 1.51902C84.251 1.16061 82.5142 0.987998 80.5625 0.987998V2.988ZM85.3153 3.46857C86.5857 3.74849 87.7765 4.29798 88.893 5.12988L90.088 3.52612C88.7565 2.53401 87.3073 1.85951 85.7457 1.51542L85.3153 3.46857ZM88.8884 5.12642C90.2212 6.13147 91.2462 7.39513 91.97 8.93042L93.779 8.07758C92.9188 6.25287 91.6878 4.73252 90.0926 3.52957L88.8884 5.12642ZM91.975 8.9409C92.7205 10.4758 93.0985 12.1611 93.0985 14.012H95.0985C95.0985 11.8789 94.6605 9.89222 93.774 8.06709L91.975 8.9409ZM93.0985 14.012C93.0985 17.9126 91.6283 20.8233 88.7002 22.8773L89.8488 24.5147C93.3527 22.0567 95.0985 18.5114 95.0985 14.012H93.0985ZM88.699 22.8782C87.4928 23.727 86.2897 24.279 85.0884 24.5579L85.5406 26.5061C87.0273 26.161 88.4642 25.489 89.85 24.5138L88.699 22.8782ZM85.0884 24.5579C83.8395 24.8478 82.3114 25 80.4905 25V27C82.4136 27 84.1015 26.8402 85.5406 26.5061L85.0884 24.5579ZM80.4905 25H74.2985V27H80.4905V25ZM75.2985 26V1.988H73.2985V26H75.2985ZM77.9785 6.02V21.968H79.9785V6.02H77.9785ZM78.9785 22.968H80.4185V20.968H78.9785V22.968ZM80.4185 22.968C83.003 22.968 85.186 22.4108 86.8715 21.195L85.7015 19.573C84.4591 20.4692 82.73 20.968 80.4185 20.968V22.968ZM86.8697 21.1963C87.9558 20.4166 88.7937 19.3779 89.3882 18.1079L87.5768 17.2601C87.1153 18.246 86.4892 19.0074 85.7033 19.5717L86.8697 21.1963ZM89.3916 18.1007C89.9809 16.8149 90.2745 15.4484 90.2745 14.012H88.2745C88.2745 15.1676 88.0401 16.2491 87.5734 17.2673L89.3916 18.1007ZM90.2745 14.012C90.2745 12.5967 89.9797 11.2516 89.3882 9.98806L87.5768 10.8359C88.0413 11.8284 88.2745 12.8833 88.2745 14.012H90.2745ZM89.3987 10.0112C88.8317 8.71518 88.0104 7.64074 86.9322 6.81137L85.7128 8.39662C86.5066 9.00726 87.1253 9.80482 87.5663 10.8128L89.3987 10.0112ZM86.9203 6.80237C85.2718 5.57296 83.0649 5.02 80.4185 5.02V7.02C82.8121 7.02 84.5412 7.52304 85.7247 8.40563L86.9203 6.80237ZM80.4185 5.02H78.9785V7.02H80.4185V5.02ZM121.074 4.256L121.869 4.86312L122.393 4.17677L121.79 3.55813L121.074 4.256ZM118.626 7.46L117.828 8.06224L118.621 9.11375L119.421 8.06712L118.626 7.46ZM112.182 6.272L112.905 6.96322L112.912 6.95555L112.919 6.94772L112.182 6.272ZM112.146 9.836L112.83 9.10646L112.814 9.09123L112.797 9.07674L112.146 9.836ZM115.026 11.204L114.688 12.1451L114.695 12.1475L114.701 12.1498L115.026 11.204ZM119.886 13.616L119.21 14.3532L119.219 14.3612L119.886 13.616ZM119.598 24.38L120.282 25.1095L120.282 25.1092L119.598 24.38ZM105.306 22.004L104.616 21.2801L104.001 21.8661L104.48 22.5677L105.306 22.004ZM108.366 19.088L109.264 18.6488L108.665 17.4221L107.676 18.3641L108.366 19.088ZM110.562 21.5L110.071 22.371L110.562 21.5ZM116.07 21.392L116.723 22.1494L116.73 22.1431L116.738 22.1366L116.07 21.392ZM116.178 16.82L116.871 16.0992L116.863 16.0909L116.854 16.0828L116.178 16.82ZM112.47 15.056L112.793 14.1097L112.79 14.1086L112.47 15.056ZM108.474 12.968L109.14 12.2216L109.13 12.2128L108.474 12.968ZM108.546 3.536L109.266 4.2304L109.272 4.22409L108.546 3.536ZM120.279 3.64888L117.831 6.85288L119.421 8.06712L121.869 4.86312L120.279 3.64888ZM119.424 6.85776C118.221 5.26301 116.628 4.408 114.702 4.408V6.408C115.944 6.408 116.967 6.92099 117.828 8.06224L119.424 6.85776ZM114.702 4.408C113.404 4.408 112.237 4.73205 111.445 5.59627L112.919 6.94772C113.183 6.65995 113.696 6.408 114.702 6.408V4.408ZM111.459 5.58078C110.759 6.31335 110.39 7.20693 110.39 8.216H112.39C112.39 7.73707 112.549 7.33465 112.905 6.96322L111.459 5.58078ZM110.39 8.216C110.39 9.16401 110.776 9.9786 111.495 10.5953L112.797 9.07674C112.508 8.8294 112.39 8.56399 112.39 8.216H110.39ZM111.462 10.5655C111.773 10.8567 112.227 11.1145 112.725 11.3513C113.246 11.5987 113.903 11.8632 114.688 12.1451L115.364 10.2629C114.613 9.99283 114.022 9.75331 113.583 9.54472C113.122 9.3255 112.903 9.17534 112.83 9.10646L111.462 10.5655ZM114.701 12.1498C117.062 12.9606 118.51 13.711 119.21 14.3532L120.562 12.8788C119.534 11.937 117.742 11.0794 115.351 10.2582L114.701 12.1498ZM119.219 14.3612C120.34 15.3639 120.938 16.7533 120.938 18.656H122.938C122.938 16.2867 122.168 14.3161 120.553 12.8708L119.219 14.3612ZM120.938 18.656C120.938 20.7622 120.251 22.3957 118.914 23.6508L120.282 25.1092C122.065 23.4363 122.938 21.2538 122.938 18.656H120.938ZM118.914 23.6505C117.595 24.8869 115.851 25.54 113.586 25.54V27.54C116.265 27.54 118.529 26.7531 120.282 25.1095L118.914 23.6505ZM113.586 25.54C110.483 25.54 108.023 24.2105 106.132 21.4403L104.48 22.5677C106.717 25.8455 109.777 27.54 113.586 27.54V25.54ZM105.996 22.7279L109.056 19.8119L107.676 18.3641L104.616 21.2801L105.996 22.7279ZM107.468 19.5272C108.074 20.7666 108.938 21.732 110.071 22.371L111.053 20.629C110.314 20.212 109.715 19.5694 109.264 18.6488L107.468 19.5272ZM110.071 22.371C111.138 22.9733 112.254 23.292 113.406 23.292V21.292C112.638 21.292 111.858 21.0827 111.053 20.629L110.071 22.371ZM113.406 23.292C114.681 23.292 115.814 22.9326 116.723 22.1494L115.417 20.6346C114.934 21.0514 114.291 21.292 113.406 21.292V23.292ZM116.738 22.1366C117.657 21.3119 118.114 20.2312 118.114 18.98H116.114C116.114 19.6968 115.875 20.2241 115.402 20.6474L116.738 22.1366ZM118.114 18.98C118.114 17.8588 117.684 16.8812 116.871 16.0992L115.485 17.5408C115.92 17.9588 116.114 18.4212 116.114 18.98H118.114ZM116.854 16.0828C116.457 15.7194 115.9 15.3898 115.249 15.08C114.584 14.7639 113.763 14.441 112.793 14.1097L112.147 16.0023C113.073 16.319 113.818 16.6141 114.389 16.886C114.974 17.1642 115.323 17.3926 115.502 17.5572L116.854 16.0828ZM112.79 14.1086C111.076 13.5296 109.886 12.8875 109.14 12.2217L107.808 13.7143C108.838 14.6325 110.312 15.3824 112.15 16.0034L112.79 14.1086ZM109.13 12.2128C108.102 11.3212 107.566 10.1224 107.566 8.504H105.566C105.566 10.6296 106.302 12.4068 107.819 13.7232L109.13 12.2128ZM107.566 8.504C107.566 6.8125 108.13 5.40732 109.266 4.23037L107.826 2.84163C106.322 4.40068 105.566 6.30749 105.566 8.504H107.566ZM109.272 4.22409C110.35 3.0865 111.962 2.448 114.27 2.448V0.447998C111.586 0.447998 109.382 1.2015 107.82 2.84791L109.272 4.22409ZM114.27 2.448C116.724 2.448 118.73 3.28304 120.358 4.95386L121.79 3.55813C119.77 1.48496 117.24 0.447998 114.27 0.447998V2.448ZM139.368 1.988H140.368V0.987998H139.368V1.988ZM139.368 6.02V7.02H140.368V6.02H139.368ZM130.729 6.02V5.02H129.729V6.02H130.729ZM130.729 11.384H129.729V12.384H130.729V11.384ZM139.008 11.384H140.008V10.384H139.008V11.384ZM139.008 15.416V16.416H140.008V15.416H139.008ZM130.729 15.416V14.416H129.729V15.416H130.729ZM130.729 21.968H129.729V22.968H130.729V21.968ZM139.368 21.968H140.368V20.968H139.368V21.968ZM139.368 26V27H140.368V26H139.368ZM126.049 26H125.049V27H126.049V26ZM126.049 1.988V0.987998H125.049V1.988H126.049ZM138.368 1.988V6.02H140.368V1.988H138.368ZM139.368 5.02H130.729V7.02H139.368V5.02ZM129.729 6.02V11.384H131.729V6.02H129.729ZM130.729 12.384H139.008V10.384H130.729V12.384ZM138.008 11.384V15.416H140.008V11.384H138.008ZM139.008 14.416H130.729V16.416H139.008V14.416ZM129.729 15.416V21.968H131.729V15.416H129.729ZM130.729 22.968H139.368V20.968H130.729V22.968ZM138.368 21.968V26H140.368V21.968H138.368ZM139.368 25H126.049V27H139.368V25ZM127.049 26V1.988H125.049V26H127.049ZM126.049 2.988H139.368V0.987998H126.049V2.988ZM143.908 1.988V0.987998H142.908V1.988H143.908ZM156.976 3.788L157.623 3.02546L157.616 3.01978L156.976 3.788ZM156.544 14.84L155.982 14.0128L155.97 14.0208L156.544 14.84ZM153.916 15.884L153.733 14.9009L152.161 15.1934L153.112 16.479L153.916 15.884ZM161.404 26V27H163.388L162.208 25.405L161.404 26ZM155.572 26L154.739 26.5533L155.036 27H155.572V26ZM149.164 16.352L149.997 15.7987L149.7 15.352H149.164V16.352ZM148.588 16.352V15.352H147.588V16.352H148.588ZM148.588 26V27H149.588V26H148.588ZM143.908 26H142.908V27H143.908V26ZM148.588 5.804V4.804H147.588V5.804H148.588ZM148.588 13.04H147.588V14.04H148.588V13.04ZM151.036 12.968L151.168 13.9592L151.194 13.9557L151.22 13.9509L151.036 12.968ZM152.512 12.572L152.817 13.5244L152.834 13.519L152.851 13.5129L152.512 12.572ZM153.952 11.456L153.131 10.8849L153.126 10.8927L153.952 11.456ZM153.988 7.388L153.15 7.93427L153.156 7.94286L153.162 7.95134L153.988 7.388ZM152.548 6.272L152.209 7.21289L152.226 7.21896L152.243 7.22442L152.548 6.272ZM151.108 5.876L150.976 6.86723V6.86723L151.108 5.876ZM143.908 2.988H150.856V0.987998H143.908V2.988ZM150.856 2.988C153.356 2.988 155.137 3.5569 156.336 4.55622L157.616 3.01978C155.935 1.6191 153.636 0.987998 150.856 0.987998V2.988ZM156.329 4.55051C157.668 5.68674 158.352 7.19706 158.352 9.188H160.352C160.352 6.66694 159.452 4.57726 157.623 3.02549L156.329 4.55051ZM158.352 9.188C158.352 11.3928 157.548 12.9484 155.982 14.0129L157.106 15.6671C159.283 14.1876 160.352 11.9752 160.352 9.188H158.352ZM155.97 14.0208C155.388 14.4285 154.651 14.73 153.733 14.9009L154.099 16.8671C155.244 16.654 156.26 16.2595 157.117 15.6592L155.97 14.0208ZM153.112 16.479L160.6 26.595L162.208 25.405L154.72 15.289L153.112 16.479ZM161.404 25H155.572V27H161.404V25ZM156.405 25.4467L149.997 15.7987L148.331 16.9053L154.739 26.5533L156.405 25.4467ZM149.164 15.352H148.588V17.352H149.164V15.352ZM147.588 16.352V26H149.588V16.352H147.588ZM148.588 25H143.908V27H148.588V25ZM144.908 26V1.988H142.908V26H144.908ZM147.588 5.804V13.04H149.588V5.804H147.588ZM148.588 14.04H149.92V12.04H148.588V14.04ZM149.92 14.04C150.346 14.04 150.762 14.0134 151.168 13.9592L150.904 11.9768C150.59 12.0186 150.262 12.04 149.92 12.04V14.04ZM151.22 13.9509C151.662 13.8681 152.198 13.7224 152.817 13.5244L152.207 11.6196C151.626 11.8056 151.178 11.9239 150.852 11.9851L151.22 13.9509ZM152.851 13.5129C153.649 13.2254 154.3 12.721 154.778 12.0193L153.126 10.8927C152.884 11.247 152.574 11.4866 152.173 11.6311L152.851 13.5129ZM154.773 12.0271C155.296 11.2744 155.528 10.3799 155.528 9.404H153.528C153.528 10.0601 153.375 10.5336 153.131 10.8849L154.773 12.0271ZM155.528 9.404C155.528 8.44251 155.315 7.5593 154.814 6.82466L153.162 7.95134C153.381 8.2727 153.528 8.73349 153.528 9.404H155.528ZM154.825 6.84173C154.346 6.10671 153.682 5.58508 152.853 5.31957L152.243 7.22442C152.613 7.34292 152.91 7.56529 153.15 7.93427L154.825 6.84173ZM152.887 5.33111C152.262 5.10618 151.704 4.94665 151.24 4.88477L150.976 6.86723C151.232 6.90135 151.634 7.00582 152.209 7.21289L152.887 5.33111ZM151.24 4.88477C150.834 4.83061 150.418 4.804 149.992 4.804V6.804C150.334 6.804 150.662 6.82539 150.976 6.86723L151.24 4.88477ZM149.992 4.804H148.588V6.804H149.992V4.804ZM164.58 1.988V0.987998H163.58V1.988H164.58ZM169.26 1.988H170.26V0.987998H169.26V1.988ZM169.26 26V27H170.26V26H169.26ZM164.58 26H163.58V27H164.58V26ZM164.58 2.988H169.26V0.987998H164.58V2.988ZM168.26 1.988V26H170.26V1.988H168.26ZM169.26 25H164.58V27H169.26V25ZM165.58 26V1.988H163.58V26H165.58ZM188.06 1.988H189.06V0.987998H188.06V1.988ZM188.06 6.02V7.02H189.06V6.02H188.06ZM179.42 6.02V5.02H178.42V6.02H179.42ZM179.42 11.384H178.42V12.384H179.42V11.384ZM187.7 11.384H188.7V10.384H187.7V11.384ZM187.7 15.416V16.416H188.7V15.416H187.7ZM179.42 15.416V14.416H178.42V15.416H179.42ZM179.42 21.968H178.42V22.968H179.42V21.968ZM188.06 21.968H189.06V20.968H188.06V21.968ZM188.06 26V27H189.06V26H188.06ZM174.74 26H173.74V27H174.74V26ZM174.74 1.988V0.987998H173.74V1.988H174.74ZM187.06 1.988V6.02H189.06V1.988H187.06ZM188.06 5.02H179.42V7.02H188.06V5.02ZM178.42 6.02V11.384H180.42V6.02H178.42ZM179.42 12.384H187.7V10.384H179.42V12.384ZM186.7 11.384V15.416H188.7V11.384H186.7ZM187.7 14.416H179.42V16.416H187.7V14.416ZM178.42 15.416V21.968H180.42V15.416H178.42ZM179.42 22.968H188.06V20.968H179.42V22.968ZM187.06 21.968V26H189.06V21.968H187.06ZM188.06 25H174.74V27H188.06V25ZM175.74 26V1.988H173.74V26H175.74ZM174.74 2.988H188.06V0.987998H174.74V2.988ZM206.855 4.256L207.65 4.86312L208.174 4.17677L207.572 3.55813L206.855 4.256ZM204.407 7.46L203.609 8.06224L204.402 9.11375L205.202 8.06712L204.407 7.46ZM197.963 6.272L198.686 6.96322L198.693 6.95555L198.7 6.94772L197.963 6.272ZM197.927 9.836L198.611 9.10646L198.595 9.09123L198.578 9.07674L197.927 9.836ZM200.807 11.204L200.469 12.1451L200.476 12.1475L200.482 12.1498L200.807 11.204ZM205.667 13.616L204.992 14.3532L205 14.3612L205.667 13.616ZM205.379 24.38L206.063 25.1095L206.064 25.1092L205.379 24.38ZM191.087 22.004L190.397 21.2801L189.782 21.8661L190.261 22.5677L191.087 22.004ZM194.147 19.088L195.046 18.6488L194.446 17.4221L193.457 18.3641L194.147 19.088ZM196.343 21.5L195.852 22.371L196.343 21.5ZM201.851 21.392L202.504 22.1494L202.512 22.1431L202.519 22.1366L201.851 21.392ZM201.959 16.82L202.652 16.0992L202.644 16.0909L202.635 16.0828L201.959 16.82ZM198.251 15.056L198.575 14.1097L198.571 14.1086L198.251 15.056ZM194.255 12.968L194.921 12.2216L194.911 12.2128L194.255 12.968ZM194.327 3.536L195.047 4.2304L195.053 4.22409L194.327 3.536ZM206.061 3.64888L203.613 6.85288L205.202 8.06712L207.65 4.86312L206.061 3.64888ZM205.206 6.85776C204.003 5.26301 202.41 4.408 200.483 4.408V6.408C201.725 6.408 202.748 6.92099 203.609 8.06224L205.206 6.85776ZM200.483 4.408C199.185 4.408 198.018 4.73205 197.226 5.59627L198.7 6.94772C198.964 6.65995 199.477 6.408 200.483 6.408V4.408ZM197.241 5.58078C196.54 6.31335 196.171 7.20693 196.171 8.216H198.171C198.171 7.73707 198.331 7.33465 198.686 6.96322L197.241 5.58078ZM196.171 8.216C196.171 9.16401 196.557 9.9786 197.276 10.5953L198.578 9.07674C198.29 8.8294 198.171 8.56399 198.171 8.216H196.171ZM197.243 10.5655C197.554 10.8567 198.008 11.1145 198.506 11.3513C199.027 11.5987 199.685 11.8632 200.469 12.1451L201.145 10.2629C200.394 9.99283 199.803 9.75331 199.364 9.54472C198.903 9.3255 198.685 9.17534 198.611 9.10646L197.243 10.5655ZM200.482 12.1498C202.844 12.9606 204.291 13.711 204.992 14.3532L206.343 12.8788C205.315 11.937 203.523 11.0794 201.132 10.2582L200.482 12.1498ZM205 14.3612C206.121 15.3639 206.719 16.7533 206.719 18.656H208.719C208.719 16.2867 207.949 14.3161 206.334 12.8708L205 14.3612ZM206.719 18.656C206.719 20.7622 206.032 22.3957 204.695 23.6508L206.064 25.1092C207.846 23.4363 208.719 21.2538 208.719 18.656H206.719ZM204.695 23.6505C203.376 24.8869 201.632 25.54 199.367 25.54V27.54C202.046 27.54 204.31 26.7531 206.063 25.1095L204.695 23.6505ZM199.367 25.54C196.264 25.54 193.804 24.2105 191.913 21.4403L190.261 22.5677C192.499 25.8455 195.558 27.54 199.367 27.54V25.54ZM191.777 22.7279L194.837 19.8119L193.457 18.3641L190.397 21.2801L191.777 22.7279ZM193.249 19.5272C193.855 20.7666 194.719 21.732 195.852 22.371L196.835 20.629C196.095 20.212 195.496 19.5694 195.046 18.6488L193.249 19.5272ZM195.852 22.371C196.92 22.9733 198.035 23.292 199.187 23.292V21.292C198.419 21.292 197.639 21.0827 196.835 20.629L195.852 22.371ZM199.187 23.292C200.463 23.292 201.596 22.9326 202.504 22.1494L201.198 20.6346C200.715 21.0514 200.072 21.292 199.187 21.292V23.292ZM202.519 22.1366C203.439 21.3119 203.895 20.2312 203.895 18.98H201.895C201.895 19.6968 201.656 20.2241 201.184 20.6474L202.519 22.1366ZM203.895 18.98C203.895 17.8588 203.466 16.8812 202.652 16.0992L201.266 17.5408C201.701 17.9588 201.895 18.4212 201.895 18.98H203.895ZM202.635 16.0828C202.239 15.7194 201.681 15.3898 201.03 15.08C200.366 14.7639 199.544 14.441 198.575 14.1097L197.928 16.0023C198.855 16.319 199.599 16.6141 200.171 16.886C200.756 17.1642 201.104 17.3926 201.284 17.5572L202.635 16.0828ZM198.571 14.1086C196.858 13.5296 195.667 12.8875 194.921 12.2217L193.59 13.7143C194.619 14.6325 196.093 15.3824 197.931 16.0034L198.571 14.1086ZM194.911 12.2128C193.884 11.3212 193.347 10.1224 193.347 8.504H191.347C191.347 10.6296 192.083 12.4068 193.6 13.7232L194.911 12.2128ZM193.347 8.504C193.347 6.8125 193.911 5.40732 195.047 4.23037L193.608 2.84163C192.103 4.40068 191.347 6.30749 191.347 8.504H193.347ZM195.053 4.22409C196.132 3.0865 197.743 2.448 200.051 2.448V0.447998C197.368 0.447998 195.163 1.2015 193.602 2.84791L195.053 4.22409ZM200.051 2.448C202.505 2.448 204.511 3.28304 206.139 4.95386L207.572 3.55813C205.551 1.48496 203.022 0.447998 200.051 0.447998V2.448Z" fill="white"/>
</svg>
