<svg width="222" height="28" viewBox="0 0 222 28" fill="none" xmlns="http://www.w3.org/2000/svg">
<path d="M17.992 4.256L18.7866 4.86312L19.311 4.17677L18.7082 3.55813L17.992 4.256ZM15.544 7.46L14.7457 8.06224L15.5389 9.11375L16.3386 8.06712L15.544 7.46ZM9.1 6.272L9.82264 6.96322L9.82998 6.95555L9.83715 6.94772L9.1 6.272ZM9.064 9.836L9.74794 9.10646L9.7317 9.09123L9.71479 9.07674L9.064 9.836ZM11.944 11.204L11.6058 12.1451L11.6125 12.1475L11.6192 12.1498L11.944 11.204ZM16.804 13.616L16.1282 14.3532L16.1372 14.3612L16.804 13.616ZM16.516 24.38L17.1999 25.1095L17.2003 25.1092L16.516 24.38ZM2.224 22.004L1.53413 21.2801L0.919153 21.8661L1.39805 22.5677L2.224 22.004ZM5.284 19.088L6.18238 18.6488L5.58265 17.4221L4.59413 18.3641L5.284 19.088ZM7.48 21.5L6.98868 22.371H6.98868L7.48 21.5ZM12.988 21.392L13.6409 22.1494L13.6483 22.1431L13.6555 22.1366L12.988 21.392ZM13.096 16.82L13.7891 16.0992L13.7805 16.0909L13.7717 16.0828L13.096 16.82ZM9.388 15.056L9.71141 14.1097L9.70807 14.1086L9.388 15.056ZM5.392 12.968L6.05768 12.2216L6.04747 12.2128L5.392 12.968ZM5.464 3.536L6.18365 4.2304L6.18962 4.22409L5.464 3.536ZM17.1974 3.64888L14.7494 6.85288L16.3386 8.06712L18.7866 4.86312L17.1974 3.64888ZM16.3423 6.85776C15.1393 5.26301 13.5464 4.408 11.62 4.408V6.408C12.8616 6.408 13.8847 6.92099 14.7457 8.06224L16.3423 6.85776ZM11.62 4.408C10.3218 4.408 9.15505 4.73205 8.36285 5.59627L9.83715 6.94772C10.101 6.65995 10.6142 6.408 11.62 6.408V4.408ZM8.37736 5.58078C7.67663 6.31335 7.308 7.20693 7.308 8.216H9.308C9.308 7.73707 9.46737 7.33465 9.82264 6.96322L8.37736 5.58078ZM7.308 8.216C7.308 9.16401 7.69378 9.9786 8.41321 10.5953L9.71479 9.07674C9.42622 8.8294 9.308 8.56399 9.308 8.216H7.308ZM8.38006 10.5655C8.69059 10.8567 9.14447 11.1145 9.64294 11.3513C10.1638 11.5987 10.8214 11.8632 11.6058 12.1451L12.2822 10.2629C11.5306 9.99283 10.9402 9.75331 10.5011 9.54472C10.0395 9.3255 9.82141 9.17534 9.74794 9.10646L8.38006 10.5655ZM11.6192 12.1498C13.9802 12.9606 15.4278 13.711 16.1283 14.3532L17.4797 12.8788C16.4522 11.937 14.6598 11.0794 12.2688 10.2582L11.6192 12.1498ZM16.1372 14.3612C17.2578 15.3639 17.856 16.7533 17.856 18.656H19.856C19.856 16.2867 19.0862 14.3161 17.4708 12.8708L16.1372 14.3612ZM17.856 18.656C17.856 20.7622 17.1691 22.3957 15.8317 23.6508L17.2003 25.1092C18.9829 23.4363 19.856 21.2538 19.856 18.656H17.856ZM15.8321 23.6505C14.5132 24.8869 12.7691 25.54 10.504 25.54V27.54C13.1829 27.54 15.4468 26.7531 17.1999 25.1095L15.8321 23.6505ZM10.504 25.54C7.40112 25.54 4.94077 24.2105 3.04995 21.4403L1.39805 22.5677C3.63523 25.8455 6.69488 27.54 10.504 27.54V25.54ZM2.91387 22.7279L5.97387 19.8119L4.59413 18.3641L1.53413 21.2801L2.91387 22.7279ZM4.38562 19.5272C4.99153 20.7666 5.85587 21.732 6.98868 22.371L7.97132 20.629C7.23213 20.212 6.63247 19.5694 6.18238 18.6488L4.38562 19.5272ZM6.98868 22.371C8.05635 22.9733 9.17203 23.292 10.324 23.292V21.292C9.55597 21.292 8.77565 21.0827 7.97132 20.629L6.98868 22.371ZM10.324 23.292C11.5994 23.292 12.7325 22.9326 13.6409 22.1494L12.3351 20.6346C11.8515 21.0514 11.2086 21.292 10.324 21.292V23.292ZM13.6555 22.1366C14.5754 21.3119 15.032 20.2312 15.032 18.98H13.032C13.032 19.6968 12.7926 20.2241 12.3205 20.6474L13.6555 22.1366ZM15.032 18.98C15.032 17.8588 14.6024 16.8812 13.7891 16.0992L12.4029 17.5408C12.8376 17.9588 13.032 18.4212 13.032 18.98H15.032ZM13.7717 16.0828C13.3752 15.7194 12.8178 15.3898 12.1666 15.08C11.5022 14.7639 10.6807 14.441 9.71141 14.1097L9.0646 16.0023C9.99135 16.319 10.7358 16.6141 11.3074 16.886C11.8922 17.1642 12.2408 17.3926 12.4203 17.5572L13.7717 16.0828ZM9.70807 14.1086C7.99435 13.5296 6.80406 12.8875 6.05762 12.2217L4.72639 13.7143C5.75594 14.6325 7.22966 15.3824 9.06793 16.0034L9.70807 14.1086ZM6.04747 12.2128C5.02025 11.3212 4.484 10.1224 4.484 8.504H2.484C2.484 10.6296 3.21975 12.4068 4.73653 13.7232L6.04747 12.2128ZM4.484 8.504C4.484 6.8125 5.04797 5.40732 6.18362 4.23037L4.74438 2.84163C3.24003 4.40068 2.484 6.30749 2.484 8.504H4.484ZM6.18962 4.22409C7.26838 3.0865 8.87959 2.448 11.188 2.448V0.447998C8.50441 0.447998 6.29962 1.2015 4.73838 2.84791L6.18962 4.22409ZM11.188 2.448C13.6417 2.448 15.6478 3.28304 17.2758 4.95386L18.7082 3.55813C16.6882 1.48496 14.1583 0.447998 11.188 0.447998V2.448ZM35.5749 6.02V7.02H36.5749V6.02H35.5749ZM30.1749 6.02V5.02H29.1749V6.02H30.1749ZM30.1749 26V27H31.1749V26H30.1749ZM25.4949 26H24.4949V27H25.4949V26ZM25.4949 6.02H26.4949V5.02H25.4949V6.02ZM20.0949 6.02H19.0949V7.02H20.0949V6.02ZM20.0949 1.988V0.987998H19.0949V1.988H20.0949ZM35.5749 1.988H36.5749V0.987998H35.5749V1.988ZM35.5749 5.02H30.1749V7.02H35.5749V5.02ZM29.1749 6.02V26H31.1749V6.02H29.1749ZM30.1749 25H25.4949V27H30.1749V25ZM26.4949 26V6.02H24.4949V26H26.4949ZM25.4949 5.02H20.0949V7.02H25.4949V5.02ZM21.0949 6.02V1.988H19.0949V6.02H21.0949ZM20.0949 2.988H35.5749V0.987998H20.0949V2.988ZM34.5749 1.988V6.02H36.5749V1.988H34.5749ZM38.5407 1.988V0.987998H37.5407V1.988H38.5407ZM51.6087 3.788L52.2557 3.02546L52.2489 3.01978L51.6087 3.788ZM51.1767 14.84L50.6146 14.0128L50.6032 14.0208L51.1767 14.84ZM48.5487 15.884L48.3658 14.9009L46.7934 15.1934L47.7449 16.479L48.5487 15.884ZM56.0367 26V27H58.0211L56.8405 25.405L56.0367 26ZM50.2047 26L49.3717 26.5533L49.6684 27H50.2047V26ZM43.7967 16.352L44.6297 15.7987L44.333 15.352H43.7967V16.352ZM43.2207 16.352V15.352H42.2207V16.352H43.2207ZM43.2207 26V27H44.2207V26H43.2207ZM38.5407 26H37.5407V27H38.5407V26ZM43.2207 5.804V4.804H42.2207V5.804H43.2207ZM43.2207 13.04H42.2207V14.04H43.2207V13.04ZM45.6687 12.968L45.8009 13.9592L45.827 13.9557L45.853 13.9509L45.6687 12.968ZM47.1447 12.572L47.4495 13.5244L47.4665 13.519L47.4834 13.5129L47.1447 12.572ZM48.5847 11.456L47.7637 10.8849L47.7585 10.8927L48.5847 11.456ZM48.6207 7.388L47.7831 7.93427L47.7887 7.94286L47.7945 7.95134L48.6207 7.388ZM47.1807 6.272L46.842 7.21289L46.8588 7.21896L46.8759 7.22442L47.1807 6.272ZM45.7407 5.876L45.6085 6.86723V6.86723L45.7407 5.876ZM38.5407 2.988H45.4887V0.987998H38.5407V2.988ZM45.4887 2.988C47.989 2.988 49.7693 3.5569 50.9685 4.55622L52.2489 3.01978C50.5681 1.6191 48.2684 0.987998 45.4887 0.987998V2.988ZM50.9617 4.55051C52.3008 5.68674 52.9847 7.19706 52.9847 9.188H54.9847C54.9847 6.66694 54.0845 4.57726 52.2557 3.02549L50.9617 4.55051ZM52.9847 9.188C52.9847 11.3928 52.1812 12.9484 50.6147 14.0129L51.7387 15.6671C53.9162 14.1876 54.9847 11.9752 54.9847 9.188H52.9847ZM50.6032 14.0208C50.0207 14.4285 49.2843 14.73 48.3658 14.9009L48.7316 16.8671C49.8771 16.654 50.8927 16.2595 51.7501 15.6592L50.6032 14.0208ZM47.7449 16.479L55.2329 26.595L56.8405 25.405L49.3524 15.289L47.7449 16.479ZM56.0367 25H50.2047V27H56.0367V25ZM51.0377 25.4467L44.6297 15.7987L42.9637 16.9053L49.3717 26.5533L51.0377 25.4467ZM43.7967 15.352H43.2207V17.352H43.7967V15.352ZM42.2207 16.352V26H44.2207V16.352H42.2207ZM43.2207 25H38.5407V27H43.2207V25ZM39.5407 26V1.988H37.5407V26H39.5407ZM42.2207 5.804V13.04H44.2207V5.804H42.2207ZM43.2207 14.04H44.5527V12.04H43.2207V14.04ZM44.5527 14.04C44.9784 14.04 45.3946 14.0134 45.8009 13.9592L45.5365 11.9768C45.2228 12.0186 44.895 12.04 44.5527 12.04V14.04ZM45.853 13.9509C46.2946 13.8681 46.8307 13.7224 47.4495 13.5244L46.8399 11.6196C46.2587 11.8056 45.8107 11.9239 45.4844 11.9851L45.853 13.9509ZM47.4834 13.5129C48.2821 13.2254 48.9325 12.721 49.4109 12.0193L47.7585 10.8927C47.5169 11.247 47.2073 11.4866 46.806 11.6311L47.4834 13.5129ZM49.4056 12.0271C49.9292 11.2744 50.1607 10.3799 50.1607 9.404H48.1607C48.1607 10.0601 48.0082 10.5336 47.7638 10.8849L49.4056 12.0271ZM50.1607 9.404C50.1607 8.44251 49.9478 7.5593 49.4469 6.82466L47.7945 7.95134C48.0136 8.2727 48.1607 8.73349 48.1607 9.404H50.1607ZM49.4583 6.84173C48.9789 6.10671 48.3152 5.58508 47.4855 5.31957L46.8759 7.22442C47.2462 7.34292 47.5424 7.56529 47.7831 7.93427L49.4583 6.84173ZM47.5194 5.33111C46.8946 5.10618 46.3369 4.94665 45.8729 4.88477L45.6085 6.86723C45.8645 6.90135 46.2668 7.00582 46.842 7.21289L47.5194 5.33111ZM45.8729 4.88477C45.4666 4.83061 45.0504 4.804 44.6247 4.804V6.804C44.967 6.804 45.2948 6.82539 45.6085 6.86723L45.8729 4.88477ZM44.6247 4.804H43.2207V6.804H44.6247V4.804ZM72.5326 1.988H73.5326V0.987998H72.5326V1.988ZM72.5326 6.02V7.02H73.5326V6.02H72.5326ZM63.8926 6.02V5.02H62.8926V6.02H63.8926ZM63.8926 11.384H62.8926V12.384H63.8926V11.384ZM72.1726 11.384H73.1726V10.384H72.1726V11.384ZM72.1726 15.416V16.416H73.1726V15.416H72.1726ZM63.8926 15.416V14.416H62.8926V15.416H63.8926ZM63.8926 21.968H62.8926V22.968H63.8926V21.968ZM72.5326 21.968H73.5326V20.968H72.5326V21.968ZM72.5326 26V27H73.5326V26H72.5326ZM59.2126 26H58.2126V27H59.2126V26ZM59.2126 1.988V0.987998H58.2126V1.988H59.2126ZM71.5326 1.988V6.02H73.5326V1.988H71.5326ZM72.5326 5.02H63.8926V7.02H72.5326V5.02ZM62.8926 6.02V11.384H64.8926V6.02H62.8926ZM63.8926 12.384H72.1726V10.384H63.8926V12.384ZM71.1726 11.384V15.416H73.1726V11.384H71.1726ZM72.1726 14.416H63.8926V16.416H72.1726V14.416ZM62.8926 15.416V21.968H64.8926V15.416H62.8926ZM63.8926 22.968H72.5326V20.968H63.8926V22.968ZM71.5326 21.968V26H73.5326V21.968H71.5326ZM72.5326 25H59.2126V27H72.5326V25ZM60.2126 26V1.988H58.2126V26H60.2126ZM59.2126 2.988H72.5326V0.987998H59.2126V2.988ZM90.3919 1.988H91.3919V0.987998H90.3919V1.988ZM90.3919 6.02V7.02H91.3919V6.02H90.3919ZM81.7519 6.02V5.02H80.7519V6.02H81.7519ZM81.7519 11.384H80.7519V12.384H81.7519V11.384ZM90.0319 11.384H91.0319V10.384H90.0319V11.384ZM90.0319 15.416V16.416H91.0319V15.416H90.0319ZM81.7519 15.416V14.416H80.7519V15.416H81.7519ZM81.7519 21.968H80.7519V22.968H81.7519V21.968ZM90.3919 21.968H91.3919V20.968H90.3919V21.968ZM90.3919 26V27H91.3919V26H90.3919ZM77.0719 26H76.0719V27H77.0719V26ZM77.0719 1.988V0.987998H76.0719V1.988H77.0719ZM89.3919 1.988V6.02H91.3919V1.988H89.3919ZM90.3919 5.02H81.7519V7.02H90.3919V5.02ZM80.7519 6.02V11.384H82.7519V6.02H80.7519ZM81.7519 12.384H90.0319V10.384H81.7519V12.384ZM89.0319 11.384V15.416H91.0319V11.384H89.0319ZM90.0319 14.416H81.7519V16.416H90.0319V14.416ZM80.7519 15.416V21.968H82.7519V15.416H80.7519ZM81.7519 22.968H90.3919V20.968H81.7519V22.968ZM89.3919 21.968V26H91.3919V21.968H89.3919ZM90.3919 25H77.0719V27H90.3919V25ZM78.0719 26V1.988H76.0719V26H78.0719ZM77.0719 2.988H90.3919V0.987998H77.0719V2.988ZM108.665 6.02V7.02H109.665V6.02H108.665ZM103.265 6.02V5.02H102.265V6.02H103.265ZM103.265 26V27H104.265V26H103.265ZM98.5847 26H97.5847V27H98.5847V26ZM98.5847 6.02H99.5847V5.02H98.5847V6.02ZM93.1848 6.02H92.1848V7.02H93.1848V6.02ZM93.1848 1.988V0.987998H92.1848V1.988H93.1848ZM108.665 1.988H109.665V0.987998H108.665V1.988ZM108.665 5.02H103.265V7.02H108.665V5.02ZM102.265 6.02V26H104.265V6.02H102.265ZM103.265 25H98.5847V27H103.265V25ZM99.5847 26V6.02H97.5847V26H99.5847ZM98.5847 5.02H93.1848V7.02H98.5847V5.02ZM94.1848 6.02V1.988H92.1848V6.02H94.1848ZM93.1848 2.988H108.665V0.987998H93.1848V2.988ZM107.665 1.988V6.02H109.665V1.988H107.665ZM134.289 4.256L135.083 4.86312L135.608 4.17677L135.005 3.55813L134.289 4.256ZM131.841 7.46L131.043 8.06224L131.836 9.11375L132.635 8.06712L131.841 7.46ZM125.397 6.272L126.12 6.96322L126.127 6.95555L126.134 6.94772L125.397 6.272ZM125.361 9.836L126.045 9.10646L126.029 9.09123L126.012 9.07674L125.361 9.836ZM128.241 11.204L127.903 12.1451L127.909 12.1475L127.916 12.1498L128.241 11.204ZM133.101 13.616L132.425 14.3532L132.434 14.3612L133.101 13.616ZM132.813 24.38L133.497 25.1095L133.497 25.1092L132.813 24.38ZM118.521 22.004L117.831 21.2801L117.216 21.8661L117.695 22.5677L118.521 22.004ZM121.581 19.088L122.479 18.6488L121.88 17.4221L120.891 18.3641L121.581 19.088ZM123.777 21.5L123.286 22.371L123.777 21.5ZM129.285 21.392L129.938 22.1494L129.945 22.1431L129.952 22.1366L129.285 21.392ZM129.393 16.82L130.086 16.0992L130.077 16.0909L130.069 16.0828L129.393 16.82ZM125.685 15.056L126.008 14.1097L126.005 14.1086L125.685 15.056ZM121.689 12.968L122.355 12.2216L122.344 12.2128L121.689 12.968ZM121.761 3.536L122.481 4.2304L122.486 4.22409L121.761 3.536ZM133.494 3.64888L131.046 6.85288L132.635 8.06712L135.083 4.86312L133.494 3.64888ZM132.639 6.85776C131.436 5.26301 129.843 4.408 127.917 4.408V6.408C129.159 6.408 130.182 6.92099 131.043 8.06224L132.639 6.85776ZM127.917 4.408C126.619 4.408 125.452 4.73205 124.66 5.59627L126.134 6.94772C126.398 6.65995 126.911 6.408 127.917 6.408V4.408ZM124.674 5.58078C123.974 6.31335 123.605 7.20693 123.605 8.216H125.605C125.605 7.73707 125.764 7.33465 126.12 6.96322L124.674 5.58078ZM123.605 8.216C123.605 9.16401 123.991 9.9786 124.71 10.5953L126.012 9.07674C125.723 8.8294 125.605 8.56399 125.605 8.216H123.605ZM124.677 10.5655C124.987 10.8567 125.441 11.1145 125.94 11.3513C126.461 11.5987 127.118 11.8632 127.903 12.1451L128.579 10.2629C127.828 9.99283 127.237 9.75331 126.798 9.54472C126.336 9.3255 126.118 9.17534 126.045 9.10646L124.677 10.5655ZM127.916 12.1498C130.277 12.9606 131.725 13.711 132.425 14.3532L133.777 12.8788C132.749 11.937 130.957 11.0794 128.566 10.2582L127.916 12.1498ZM132.434 14.3612C133.555 15.3639 134.153 16.7533 134.153 18.656H136.153C136.153 16.2867 135.383 14.3161 133.768 12.8708L132.434 14.3612ZM134.153 18.656C134.153 20.7622 133.466 22.3957 132.129 23.6508L133.497 25.1092C135.28 23.4363 136.153 21.2538 136.153 18.656H134.153ZM132.129 23.6505C130.81 24.8869 129.066 25.54 126.801 25.54V27.54C129.48 27.54 131.744 26.7531 133.497 25.1095L132.129 23.6505ZM126.801 25.54C123.698 25.54 121.238 24.2105 119.347 21.4403L117.695 22.5677C119.932 25.8455 122.992 27.54 126.801 27.54V25.54ZM119.211 22.7279L122.271 19.8119L120.891 18.3641L117.831 21.2801L119.211 22.7279ZM120.682 19.5272C121.288 20.7666 122.153 21.732 123.286 22.371L124.268 20.629C123.529 20.212 122.929 19.5694 122.479 18.6488L120.682 19.5272ZM123.286 22.371C124.353 22.9733 125.469 23.292 126.621 23.292V21.292C125.853 21.292 125.073 21.0827 124.268 20.629L123.286 22.371ZM126.621 23.292C127.896 23.292 129.029 22.9326 129.938 22.1494L128.632 20.6346C128.148 21.0514 127.505 21.292 126.621 21.292V23.292ZM129.952 22.1366C130.872 21.3119 131.329 20.2312 131.329 18.98H129.329C129.329 19.6968 129.089 20.2241 128.617 20.6474L129.952 22.1366ZM131.329 18.98C131.329 17.8588 130.899 16.8812 130.086 16.0992L128.7 17.5408C129.134 17.9588 129.329 18.4212 129.329 18.98H131.329ZM130.069 16.0828C129.672 15.7194 129.115 15.3898 128.463 15.08C127.799 14.7639 126.978 14.441 126.008 14.1097L125.361 16.0023C126.288 16.319 127.033 16.6141 127.604 16.886C128.189 17.1642 128.538 17.3926 128.717 17.5572L130.069 16.0828ZM126.005 14.1086C124.291 13.5296 123.101 12.8875 122.354 12.2217L121.023 13.7143C122.053 14.6325 123.527 15.3824 125.365 16.0034L126.005 14.1086ZM122.344 12.2128C121.317 11.3212 120.781 10.1224 120.781 8.504H118.781C118.781 10.6296 119.517 12.4068 121.033 13.7232L122.344 12.2128ZM120.781 8.504C120.781 6.8125 121.345 5.40732 122.48 4.23037L121.041 2.84163C119.537 4.40068 118.781 6.30749 118.781 8.504H120.781ZM122.486 4.22409C123.565 3.0865 125.176 2.448 127.485 2.448V0.447998C124.801 0.447998 122.596 1.2015 121.035 2.84791L122.486 4.22409ZM127.485 2.448C129.939 2.448 131.945 3.28304 133.573 4.95386L135.005 3.55813C132.985 1.48496 130.455 0.447998 127.485 0.447998V2.448ZM152.583 1.988H153.583V0.987998H152.583V1.988ZM152.583 6.02V7.02H153.583V6.02H152.583ZM143.943 6.02V5.02H142.943V6.02H143.943ZM143.943 11.384H142.943V12.384H143.943V11.384ZM152.223 11.384H153.223V10.384H152.223V11.384ZM152.223 15.416V16.416H153.223V15.416H152.223ZM143.943 15.416V14.416H142.943V15.416H143.943ZM143.943 21.968H142.943V22.968H143.943V21.968ZM152.583 21.968H153.583V20.968H152.583V21.968ZM152.583 26V27H153.583V26H152.583ZM139.263 26H138.263V27H139.263V26ZM139.263 1.988V0.987998H138.263V1.988H139.263ZM151.583 1.988V6.02H153.583V1.988H151.583ZM152.583 5.02H143.943V7.02H152.583V5.02ZM142.943 6.02V11.384H144.943V6.02H142.943ZM143.943 12.384H152.223V10.384H143.943V12.384ZM151.223 11.384V15.416H153.223V11.384H151.223ZM152.223 14.416H143.943V16.416H152.223V14.416ZM142.943 15.416V21.968H144.943V15.416H142.943ZM143.943 22.968H152.583V20.968H143.943V22.968ZM151.583 21.968V26H153.583V21.968H151.583ZM152.583 25H139.263V27H152.583V25ZM140.263 26V1.988H138.263V26H140.263ZM139.263 2.988H152.583V0.987998H139.263V2.988ZM157.123 1.988V0.987998H156.123V1.988H157.123ZM170.191 3.788L170.838 3.02546L170.831 3.01978L170.191 3.788ZM169.759 14.84L169.197 14.0128L169.185 14.0208L169.759 14.84ZM167.131 15.884L166.948 14.9009L165.375 15.1934L166.327 16.479L167.131 15.884ZM174.619 26V27H176.603L175.422 25.405L174.619 26ZM168.787 26L167.954 26.5533L168.25 27H168.787V26ZM162.379 16.352L163.212 15.7987L162.915 15.352H162.379V16.352ZM161.803 16.352V15.352H160.803V16.352H161.803ZM161.803 26V27H162.803V26H161.803ZM157.123 26H156.123V27H157.123V26ZM161.803 5.804V4.804H160.803V5.804H161.803ZM161.803 13.04H160.803V14.04H161.803V13.04ZM164.251 12.968L164.383 13.9592L164.409 13.9557L164.435 13.9509L164.251 12.968ZM165.727 12.572L166.031 13.5244L166.049 13.519L166.065 13.5129L165.727 12.572ZM167.167 11.456L166.346 10.8849L166.34 10.8927L167.167 11.456ZM167.203 7.388L166.365 7.93427L166.371 7.94286L166.376 7.95134L167.203 7.388ZM165.763 6.272L165.424 7.21289L165.441 7.21896L165.458 7.22442L165.763 6.272ZM164.323 5.876L164.191 6.86723V6.86723L164.323 5.876ZM157.123 2.988H164.071V0.987998H157.123V2.988ZM164.071 2.988C166.571 2.988 168.351 3.5569 169.551 4.55622L170.831 3.01978C169.15 1.6191 166.85 0.987998 164.071 0.987998V2.988ZM169.544 4.55051C170.883 5.68674 171.567 7.19706 171.567 9.188H173.567C173.567 6.66694 172.667 4.57726 170.838 3.02549L169.544 4.55051ZM171.567 9.188C171.567 11.3928 170.763 12.9484 169.197 14.0129L170.321 15.6671C172.498 14.1876 173.567 11.9752 173.567 9.188H171.567ZM169.185 14.0208C168.603 14.4285 167.866 14.73 166.948 14.9009L167.314 16.8671C168.459 16.654 169.475 16.2595 170.332 15.6592L169.185 14.0208ZM166.327 16.479L173.815 26.595L175.422 25.405L167.934 15.289L166.327 16.479ZM174.619 25H168.787V27H174.619V25ZM169.62 25.4467L163.212 15.7987L161.546 16.9053L167.954 26.5533L169.62 25.4467ZM162.379 15.352H161.803V17.352H162.379V15.352ZM160.803 16.352V26H162.803V16.352H160.803ZM161.803 25H157.123V27H161.803V25ZM158.123 26V1.988H156.123V26H158.123ZM160.803 5.804V13.04H162.803V5.804H160.803ZM161.803 14.04H163.135V12.04H161.803V14.04ZM163.135 14.04C163.56 14.04 163.977 14.0134 164.383 13.9592L164.119 11.9768C163.805 12.0186 163.477 12.04 163.135 12.04V14.04ZM164.435 13.9509C164.877 13.8681 165.413 13.7224 166.031 13.5244L165.422 11.6196C164.841 11.8056 164.393 11.9239 164.066 11.9851L164.435 13.9509ZM166.065 13.5129C166.864 13.2254 167.515 12.721 167.993 12.0193L166.34 10.8927C166.099 11.247 165.789 11.4866 165.388 11.6311L166.065 13.5129ZM167.988 12.0271C168.511 11.2744 168.743 10.3799 168.743 9.404H166.743C166.743 10.0601 166.59 10.5336 166.346 10.8849L167.988 12.0271ZM168.743 9.404C168.743 8.44251 168.53 7.5593 168.029 6.82466L166.376 7.95134C166.596 8.2727 166.743 8.73349 166.743 9.404H168.743ZM168.04 6.84173C167.561 6.10671 166.897 5.58508 166.067 5.31957L165.458 7.22442C165.828 7.34292 166.124 7.56529 166.365 7.93427L168.04 6.84173ZM166.101 5.33111C165.477 5.10618 164.919 4.94665 164.455 4.88477L164.191 6.86723C164.447 6.90135 164.849 7.00582 165.424 7.21289L166.101 5.33111ZM164.455 4.88477C164.049 4.83061 163.632 4.804 163.207 4.804V6.804C163.549 6.804 163.877 6.82539 164.191 6.86723L164.455 4.88477ZM163.207 4.804H161.803V6.804H163.207V4.804ZM177.795 1.988V0.987998H176.795V1.988H177.795ZM182.475 1.988H183.475V0.987998H182.475V1.988ZM182.475 26V27H183.475V26H182.475ZM177.795 26H176.795V27H177.795V26ZM177.795 2.988H182.475V0.987998H177.795V2.988ZM181.475 1.988V26H183.475V1.988H181.475ZM182.475 25H177.795V27H182.475V25ZM178.795 26V1.988H176.795V26H178.795ZM201.275 1.988H202.275V0.987998H201.275V1.988ZM201.275 6.02V7.02H202.275V6.02H201.275ZM192.635 6.02V5.02H191.635V6.02H192.635ZM192.635 11.384H191.635V12.384H192.635V11.384ZM200.915 11.384H201.915V10.384H200.915V11.384ZM200.915 15.416V16.416H201.915V15.416H200.915ZM192.635 15.416V14.416H191.635V15.416H192.635ZM192.635 21.968H191.635V22.968H192.635V21.968ZM201.275 21.968H202.275V20.968H201.275V21.968ZM201.275 26V27H202.275V26H201.275ZM187.955 26H186.955V27H187.955V26ZM187.955 1.988V0.987998H186.955V1.988H187.955ZM200.275 1.988V6.02H202.275V1.988H200.275ZM201.275 5.02H192.635V7.02H201.275V5.02ZM191.635 6.02V11.384H193.635V6.02H191.635ZM192.635 12.384H200.915V10.384H192.635V12.384ZM199.915 11.384V15.416H201.915V11.384H199.915ZM200.915 14.416H192.635V16.416H200.915V14.416ZM191.635 15.416V21.968H193.635V15.416H191.635ZM192.635 22.968H201.275V20.968H192.635V22.968ZM200.275 21.968V26H202.275V21.968H200.275ZM201.275 25H187.955V27H201.275V25ZM188.955 26V1.988H186.955V26H188.955ZM187.955 2.988H201.275V0.987998H187.955V2.988ZM220.07 4.256L220.865 4.86312L221.389 4.17677L220.786 3.55813L220.07 4.256ZM217.622 7.46L216.824 8.06224L217.617 9.11375L218.417 8.06712L217.622 7.46ZM211.178 6.272L211.901 6.96322L211.908 6.95555L211.915 6.94772L211.178 6.272ZM211.142 9.836L211.826 9.10646L211.81 9.09123L211.793 9.07674L211.142 9.836ZM214.022 11.204L213.684 12.1451L213.691 12.1475L213.697 12.1498L214.022 11.204ZM218.882 13.616L218.206 14.3532L218.215 14.3612L218.882 13.616ZM218.594 24.38L219.278 25.1095L219.278 25.1092L218.594 24.38ZM204.302 22.004L203.612 21.2801L202.997 21.8661L203.476 22.5677L204.302 22.004ZM207.362 19.088L208.261 18.6488L207.661 17.4221L206.672 18.3641L207.362 19.088ZM209.558 21.5L209.067 22.371L209.558 21.5ZM215.066 21.392L215.719 22.1494L215.726 22.1431L215.734 22.1366L215.066 21.392ZM215.174 16.82L215.867 16.0992L215.859 16.0909L215.85 16.0828L215.174 16.82ZM211.466 15.056L211.79 14.1097L211.786 14.1086L211.466 15.056ZM207.47 12.968L208.136 12.2216L208.126 12.2128L207.47 12.968ZM207.542 3.536L208.262 4.2304L208.268 4.22409L207.542 3.536ZM219.276 3.64888L216.828 6.85288L218.417 8.06712L220.865 4.86312L219.276 3.64888ZM218.42 6.85776C217.217 5.26301 215.624 4.408 213.698 4.408V6.408C214.94 6.408 215.963 6.92099 216.824 8.06224L218.42 6.85776ZM213.698 4.408C212.4 4.408 211.233 4.73205 210.441 5.59627L211.915 6.94772C212.179 6.65995 212.692 6.408 213.698 6.408V4.408ZM210.455 5.58078C209.755 6.31335 209.386 7.20693 209.386 8.216H211.386C211.386 7.73707 211.545 7.33465 211.901 6.96322L210.455 5.58078ZM209.386 8.216C209.386 9.16401 209.772 9.9786 210.491 10.5953L211.793 9.07674C211.504 8.8294 211.386 8.56399 211.386 8.216H209.386ZM210.458 10.5655C210.769 10.8567 211.223 11.1145 211.721 11.3513C212.242 11.5987 212.899 11.8632 213.684 12.1451L214.36 10.2629C213.609 9.99283 213.018 9.75331 212.579 9.54472C212.118 9.3255 211.9 9.17534 211.826 9.10646L210.458 10.5655ZM213.697 12.1498C216.058 12.9606 217.506 13.711 218.206 14.3532L219.558 12.8788C218.53 11.937 216.738 11.0794 214.347 10.2582L213.697 12.1498ZM218.215 14.3612C219.336 15.3639 219.934 16.7533 219.934 18.656H221.934C221.934 16.2867 221.164 14.3161 219.549 12.8708L218.215 14.3612ZM219.934 18.656C219.934 20.7622 219.247 22.3957 217.91 23.6508L219.278 25.1092C221.061 23.4363 221.934 21.2538 221.934 18.656H219.934ZM217.91 23.6505C216.591 24.8869 214.847 25.54 212.582 25.54V27.54C215.261 27.54 217.525 26.7531 219.278 25.1095L217.91 23.6505ZM212.582 25.54C209.479 25.54 207.019 24.2105 205.128 21.4403L203.476 22.5677C205.713 25.8455 208.773 27.54 212.582 27.54V25.54ZM204.992 22.7279L208.052 19.8119L206.672 18.3641L203.612 21.2801L204.992 22.7279ZM206.464 19.5272C207.07 20.7666 207.934 21.732 209.067 22.371L210.049 20.629C209.31 20.212 208.711 19.5694 208.261 18.6488L206.464 19.5272ZM209.067 22.371C210.134 22.9733 211.25 23.292 212.402 23.292V21.292C211.634 21.292 210.854 21.0827 210.049 20.629L209.067 22.371ZM212.402 23.292C213.678 23.292 214.811 22.9326 215.719 22.1494L214.413 20.6346C213.93 21.0514 213.287 21.292 212.402 21.292V23.292ZM215.734 22.1366C216.654 21.3119 217.11 20.2312 217.11 18.98H215.11C215.11 19.6968 214.871 20.2241 214.399 20.6474L215.734 22.1366ZM217.11 18.98C217.11 17.8588 216.681 16.8812 215.867 16.0992L214.481 17.5408C214.916 17.9588 215.11 18.4212 215.11 18.98H217.11ZM215.85 16.0828C215.453 15.7194 214.896 15.3898 214.245 15.08C213.58 14.7639 212.759 14.441 211.79 14.1097L211.143 16.0023C212.069 16.319 212.814 16.6141 213.386 16.886C213.97 17.1642 214.319 17.3926 214.498 17.5572L215.85 16.0828ZM211.786 14.1086C210.072 13.5296 208.882 12.8875 208.136 12.2217L206.805 13.7143C207.834 14.6325 209.308 15.3824 211.146 16.0034L211.786 14.1086ZM208.126 12.2128C207.098 11.3212 206.562 10.1224 206.562 8.504H204.562C204.562 10.6296 205.298 12.4068 206.815 13.7232L208.126 12.2128ZM206.562 8.504C206.562 6.8125 207.126 5.40732 208.262 4.23037L206.823 2.84163C205.318 4.40068 204.562 6.30749 204.562 8.504H206.562ZM208.268 4.22409C209.346 3.0865 210.958 2.448 213.266 2.448V0.447998C210.583 0.447998 208.378 1.2015 206.816 2.84791L208.268 4.22409ZM213.266 2.448C215.72 2.448 217.726 3.28304 219.354 4.95386L220.786 3.55813C218.766 1.48496 216.236 0.447998 213.266 0.447998V2.448Z" fill="white"/>
</svg>
